<mxfile host="app.diagrams.net" agent="Mozilla/5.0 (Windows NT 10.0; Win64; x64) AppleWebKit/537.36 (KHTML, like Gecko) Chrome/128.0.0.0 Safari/537.36 OPR/114.0.0.0" version="24.8.4">
  <diagram name="Page-1" id="OeRLr7eC-vetXbkdPCja">
    <mxGraphModel grid="1" page="1" gridSize="10" guides="1" tooltips="1" connect="1" arrows="1" fold="1" pageScale="1" pageWidth="850" pageHeight="1100" math="0" shadow="0">
      <root>
        <mxCell id="0" />
        <mxCell id="1" parent="0" />
        <mxCell id="X6pj7YaXZ-_5lvFSQrNL-1" value="USER" style="shape=table;startSize=30;container=1;collapsible=1;childLayout=tableLayout;fixedRows=1;rowLines=0;fontStyle=1;align=center;resizeLast=1;html=1;fillColor=#647687;fontColor=#ffffff;strokeColor=#314354;" vertex="1" parent="1">
          <mxGeometry x="280" width="180" height="390" as="geometry" />
        </mxCell>
        <mxCell id="X6pj7YaXZ-_5lvFSQrNL-2" value="" style="shape=tableRow;horizontal=0;startSize=0;swimlaneHead=0;swimlaneBody=0;fillColor=none;collapsible=0;dropTarget=0;points=[[0,0.5],[1,0.5]];portConstraint=eastwest;top=0;left=0;right=0;bottom=1;" vertex="1" parent="X6pj7YaXZ-_5lvFSQrNL-1">
          <mxGeometry y="30" width="180" height="60" as="geometry" />
        </mxCell>
        <mxCell id="X6pj7YaXZ-_5lvFSQrNL-3" value="PK" style="shape=partialRectangle;connectable=0;fillColor=none;top=0;left=0;bottom=0;right=0;fontStyle=1;overflow=hidden;whiteSpace=wrap;html=1;" vertex="1" parent="X6pj7YaXZ-_5lvFSQrNL-2">
          <mxGeometry width="30" height="60" as="geometry">
            <mxRectangle width="30" height="60" as="alternateBounds" />
          </mxGeometry>
        </mxCell>
        <mxCell id="X6pj7YaXZ-_5lvFSQrNL-4" value="USER_ID" style="shape=partialRectangle;connectable=0;fillColor=none;top=0;left=0;bottom=0;right=0;align=left;spacingLeft=6;fontStyle=5;overflow=hidden;whiteSpace=wrap;html=1;" vertex="1" parent="X6pj7YaXZ-_5lvFSQrNL-2">
          <mxGeometry x="30" width="150" height="60" as="geometry">
            <mxRectangle width="150" height="60" as="alternateBounds" />
          </mxGeometry>
        </mxCell>
        <mxCell id="X6pj7YaXZ-_5lvFSQrNL-5" value="" style="shape=tableRow;horizontal=0;startSize=0;swimlaneHead=0;swimlaneBody=0;fillColor=none;collapsible=0;dropTarget=0;points=[[0,0.5],[1,0.5]];portConstraint=eastwest;top=0;left=0;right=0;bottom=0;" vertex="1" parent="X6pj7YaXZ-_5lvFSQrNL-1">
          <mxGeometry y="90" width="180" height="30" as="geometry" />
        </mxCell>
        <mxCell id="X6pj7YaXZ-_5lvFSQrNL-6" value="U" style="shape=partialRectangle;connectable=0;fillColor=none;top=0;left=0;bottom=0;right=0;editable=1;overflow=hidden;whiteSpace=wrap;html=1;" vertex="1" parent="X6pj7YaXZ-_5lvFSQrNL-5">
          <mxGeometry width="30" height="30" as="geometry">
            <mxRectangle width="30" height="30" as="alternateBounds" />
          </mxGeometry>
        </mxCell>
        <mxCell id="X6pj7YaXZ-_5lvFSQrNL-7" value="USER_NUMBER" style="shape=partialRectangle;connectable=0;fillColor=none;top=0;left=0;bottom=0;right=0;align=left;spacingLeft=6;overflow=hidden;whiteSpace=wrap;html=1;fontStyle=1" vertex="1" parent="X6pj7YaXZ-_5lvFSQrNL-5">
          <mxGeometry x="30" width="150" height="30" as="geometry">
            <mxRectangle width="150" height="30" as="alternateBounds" />
          </mxGeometry>
        </mxCell>
        <mxCell id="X6pj7YaXZ-_5lvFSQrNL-8" value="" style="shape=tableRow;horizontal=0;startSize=0;swimlaneHead=0;swimlaneBody=0;fillColor=none;collapsible=0;dropTarget=0;points=[[0,0.5],[1,0.5]];portConstraint=eastwest;top=0;left=0;right=0;bottom=0;" vertex="1" parent="X6pj7YaXZ-_5lvFSQrNL-1">
          <mxGeometry y="120" width="180" height="30" as="geometry" />
        </mxCell>
        <mxCell id="X6pj7YaXZ-_5lvFSQrNL-9" value="U" style="shape=partialRectangle;connectable=0;fillColor=none;top=0;left=0;bottom=0;right=0;editable=1;overflow=hidden;whiteSpace=wrap;html=1;" vertex="1" parent="X6pj7YaXZ-_5lvFSQrNL-8">
          <mxGeometry width="30" height="30" as="geometry">
            <mxRectangle width="30" height="30" as="alternateBounds" />
          </mxGeometry>
        </mxCell>
        <mxCell id="X6pj7YaXZ-_5lvFSQrNL-10" value="USER_USERNAME" style="shape=partialRectangle;connectable=0;fillColor=none;top=0;left=0;bottom=0;right=0;align=left;spacingLeft=6;overflow=hidden;whiteSpace=wrap;html=1;fontStyle=1" vertex="1" parent="X6pj7YaXZ-_5lvFSQrNL-8">
          <mxGeometry x="30" width="150" height="30" as="geometry">
            <mxRectangle width="150" height="30" as="alternateBounds" />
          </mxGeometry>
        </mxCell>
        <mxCell id="X6pj7YaXZ-_5lvFSQrNL-14" value="" style="shape=tableRow;horizontal=0;startSize=0;swimlaneHead=0;swimlaneBody=0;fillColor=none;collapsible=0;dropTarget=0;points=[[0,0.5],[1,0.5]];portConstraint=eastwest;top=0;left=0;right=0;bottom=0;" vertex="1" parent="X6pj7YaXZ-_5lvFSQrNL-1">
          <mxGeometry y="150" width="180" height="30" as="geometry" />
        </mxCell>
        <mxCell id="X6pj7YaXZ-_5lvFSQrNL-15" value="" style="shape=partialRectangle;connectable=0;fillColor=none;top=0;left=0;bottom=0;right=0;editable=1;overflow=hidden;whiteSpace=wrap;html=1;" vertex="1" parent="X6pj7YaXZ-_5lvFSQrNL-14">
          <mxGeometry width="30" height="30" as="geometry">
            <mxRectangle width="30" height="30" as="alternateBounds" />
          </mxGeometry>
        </mxCell>
        <mxCell id="X6pj7YaXZ-_5lvFSQrNL-16" value="USER_FIRST" style="shape=partialRectangle;connectable=0;fillColor=none;top=0;left=0;bottom=0;right=0;align=left;spacingLeft=6;overflow=hidden;whiteSpace=wrap;html=1;fontStyle=1" vertex="1" parent="X6pj7YaXZ-_5lvFSQrNL-14">
          <mxGeometry x="30" width="150" height="30" as="geometry">
            <mxRectangle width="150" height="30" as="alternateBounds" />
          </mxGeometry>
        </mxCell>
        <mxCell id="X6pj7YaXZ-_5lvFSQrNL-17" value="" style="shape=tableRow;horizontal=0;startSize=0;swimlaneHead=0;swimlaneBody=0;fillColor=none;collapsible=0;dropTarget=0;points=[[0,0.5],[1,0.5]];portConstraint=eastwest;top=0;left=0;right=0;bottom=0;" vertex="1" parent="X6pj7YaXZ-_5lvFSQrNL-1">
          <mxGeometry y="180" width="180" height="30" as="geometry" />
        </mxCell>
        <mxCell id="X6pj7YaXZ-_5lvFSQrNL-18" value="" style="shape=partialRectangle;connectable=0;fillColor=none;top=0;left=0;bottom=0;right=0;editable=1;overflow=hidden;whiteSpace=wrap;html=1;" vertex="1" parent="X6pj7YaXZ-_5lvFSQrNL-17">
          <mxGeometry width="30" height="30" as="geometry">
            <mxRectangle width="30" height="30" as="alternateBounds" />
          </mxGeometry>
        </mxCell>
        <mxCell id="X6pj7YaXZ-_5lvFSQrNL-19" value="USER_LAST" style="shape=partialRectangle;connectable=0;fillColor=none;top=0;left=0;bottom=0;right=0;align=left;spacingLeft=6;overflow=hidden;whiteSpace=wrap;html=1;fontStyle=1" vertex="1" parent="X6pj7YaXZ-_5lvFSQrNL-17">
          <mxGeometry x="30" width="150" height="30" as="geometry">
            <mxRectangle width="150" height="30" as="alternateBounds" />
          </mxGeometry>
        </mxCell>
        <mxCell id="X6pj7YaXZ-_5lvFSQrNL-26" value="" style="shape=tableRow;horizontal=0;startSize=0;swimlaneHead=0;swimlaneBody=0;fillColor=none;collapsible=0;dropTarget=0;points=[[0,0.5],[1,0.5]];portConstraint=eastwest;top=0;left=0;right=0;bottom=0;" vertex="1" parent="X6pj7YaXZ-_5lvFSQrNL-1">
          <mxGeometry y="210" width="180" height="30" as="geometry" />
        </mxCell>
        <mxCell id="X6pj7YaXZ-_5lvFSQrNL-27" value="" style="shape=partialRectangle;connectable=0;fillColor=none;top=0;left=0;bottom=0;right=0;editable=1;overflow=hidden;whiteSpace=wrap;html=1;" vertex="1" parent="X6pj7YaXZ-_5lvFSQrNL-26">
          <mxGeometry width="30" height="30" as="geometry">
            <mxRectangle width="30" height="30" as="alternateBounds" />
          </mxGeometry>
        </mxCell>
        <mxCell id="X6pj7YaXZ-_5lvFSQrNL-28" value="&lt;span style=&quot;font-weight: normal;&quot;&gt;USER_INITIAL&lt;/span&gt;" style="shape=partialRectangle;connectable=0;fillColor=none;top=0;left=0;bottom=0;right=0;align=left;spacingLeft=6;overflow=hidden;whiteSpace=wrap;html=1;fontStyle=1" vertex="1" parent="X6pj7YaXZ-_5lvFSQrNL-26">
          <mxGeometry x="30" width="150" height="30" as="geometry">
            <mxRectangle width="150" height="30" as="alternateBounds" />
          </mxGeometry>
        </mxCell>
        <mxCell id="X6pj7YaXZ-_5lvFSQrNL-11" value="" style="shape=tableRow;horizontal=0;startSize=0;swimlaneHead=0;swimlaneBody=0;fillColor=none;collapsible=0;dropTarget=0;points=[[0,0.5],[1,0.5]];portConstraint=eastwest;top=0;left=0;right=0;bottom=0;" vertex="1" parent="X6pj7YaXZ-_5lvFSQrNL-1">
          <mxGeometry y="240" width="180" height="30" as="geometry" />
        </mxCell>
        <mxCell id="X6pj7YaXZ-_5lvFSQrNL-12" value="&lt;b&gt;U&lt;/b&gt;" style="shape=partialRectangle;connectable=0;fillColor=none;top=0;left=0;bottom=0;right=0;editable=1;overflow=hidden;whiteSpace=wrap;html=1;" vertex="1" parent="X6pj7YaXZ-_5lvFSQrNL-11">
          <mxGeometry width="30" height="30" as="geometry">
            <mxRectangle width="30" height="30" as="alternateBounds" />
          </mxGeometry>
        </mxCell>
        <mxCell id="X6pj7YaXZ-_5lvFSQrNL-13" value="&lt;b&gt;USER_EMAIL&lt;/b&gt;" style="shape=partialRectangle;connectable=0;fillColor=none;top=0;left=0;bottom=0;right=0;align=left;spacingLeft=6;overflow=hidden;whiteSpace=wrap;html=1;" vertex="1" parent="X6pj7YaXZ-_5lvFSQrNL-11">
          <mxGeometry x="30" width="150" height="30" as="geometry">
            <mxRectangle width="150" height="30" as="alternateBounds" />
          </mxGeometry>
        </mxCell>
        <mxCell id="X6pj7YaXZ-_5lvFSQrNL-20" value="" style="shape=tableRow;horizontal=0;startSize=0;swimlaneHead=0;swimlaneBody=0;fillColor=none;collapsible=0;dropTarget=0;points=[[0,0.5],[1,0.5]];portConstraint=eastwest;top=0;left=0;right=0;bottom=0;" vertex="1" parent="X6pj7YaXZ-_5lvFSQrNL-1">
          <mxGeometry y="270" width="180" height="30" as="geometry" />
        </mxCell>
        <mxCell id="X6pj7YaXZ-_5lvFSQrNL-21" value="U" style="shape=partialRectangle;connectable=0;fillColor=none;top=0;left=0;bottom=0;right=0;editable=1;overflow=hidden;whiteSpace=wrap;html=1;" vertex="1" parent="X6pj7YaXZ-_5lvFSQrNL-20">
          <mxGeometry width="30" height="30" as="geometry">
            <mxRectangle width="30" height="30" as="alternateBounds" />
          </mxGeometry>
        </mxCell>
        <mxCell id="X6pj7YaXZ-_5lvFSQrNL-22" value="USER_PHONE" style="shape=partialRectangle;connectable=0;fillColor=none;top=0;left=0;bottom=0;right=0;align=left;spacingLeft=6;overflow=hidden;whiteSpace=wrap;html=1;" vertex="1" parent="X6pj7YaXZ-_5lvFSQrNL-20">
          <mxGeometry x="30" width="150" height="30" as="geometry">
            <mxRectangle width="150" height="30" as="alternateBounds" />
          </mxGeometry>
        </mxCell>
        <mxCell id="X6pj7YaXZ-_5lvFSQrNL-23" value="" style="shape=tableRow;horizontal=0;startSize=0;swimlaneHead=0;swimlaneBody=0;fillColor=none;collapsible=0;dropTarget=0;points=[[0,0.5],[1,0.5]];portConstraint=eastwest;top=0;left=0;right=0;bottom=0;" vertex="1" parent="X6pj7YaXZ-_5lvFSQrNL-1">
          <mxGeometry y="300" width="180" height="30" as="geometry" />
        </mxCell>
        <mxCell id="X6pj7YaXZ-_5lvFSQrNL-24" value="" style="shape=partialRectangle;connectable=0;fillColor=none;top=0;left=0;bottom=0;right=0;editable=1;overflow=hidden;whiteSpace=wrap;html=1;" vertex="1" parent="X6pj7YaXZ-_5lvFSQrNL-23">
          <mxGeometry width="30" height="30" as="geometry">
            <mxRectangle width="30" height="30" as="alternateBounds" />
          </mxGeometry>
        </mxCell>
        <mxCell id="X6pj7YaXZ-_5lvFSQrNL-25" value="&lt;b&gt;USER_PASSWORD&lt;/b&gt;" style="shape=partialRectangle;connectable=0;fillColor=none;top=0;left=0;bottom=0;right=0;align=left;spacingLeft=6;overflow=hidden;whiteSpace=wrap;html=1;" vertex="1" parent="X6pj7YaXZ-_5lvFSQrNL-23">
          <mxGeometry x="30" width="150" height="30" as="geometry">
            <mxRectangle width="150" height="30" as="alternateBounds" />
          </mxGeometry>
        </mxCell>
        <mxCell id="2IsBwh009rrDyMOtc46o-1" value="" style="shape=tableRow;horizontal=0;startSize=0;swimlaneHead=0;swimlaneBody=0;fillColor=none;collapsible=0;dropTarget=0;points=[[0,0.5],[1,0.5]];portConstraint=eastwest;top=0;left=0;right=0;bottom=0;" vertex="1" parent="X6pj7YaXZ-_5lvFSQrNL-1">
          <mxGeometry y="330" width="180" height="30" as="geometry" />
        </mxCell>
        <mxCell id="2IsBwh009rrDyMOtc46o-2" value="" style="shape=partialRectangle;connectable=0;fillColor=none;top=0;left=0;bottom=0;right=0;editable=1;overflow=hidden;whiteSpace=wrap;html=1;" vertex="1" parent="2IsBwh009rrDyMOtc46o-1">
          <mxGeometry width="30" height="30" as="geometry">
            <mxRectangle width="30" height="30" as="alternateBounds" />
          </mxGeometry>
        </mxCell>
        <mxCell id="2IsBwh009rrDyMOtc46o-3" value="&lt;b&gt;USER_CREATED&lt;/b&gt;" style="shape=partialRectangle;connectable=0;fillColor=none;top=0;left=0;bottom=0;right=0;align=left;spacingLeft=6;overflow=hidden;whiteSpace=wrap;html=1;" vertex="1" parent="2IsBwh009rrDyMOtc46o-1">
          <mxGeometry x="30" width="150" height="30" as="geometry">
            <mxRectangle width="150" height="30" as="alternateBounds" />
          </mxGeometry>
        </mxCell>
        <mxCell id="X6pj7YaXZ-_5lvFSQrNL-77" value="" style="shape=tableRow;horizontal=0;startSize=0;swimlaneHead=0;swimlaneBody=0;fillColor=none;collapsible=0;dropTarget=0;points=[[0,0.5],[1,0.5]];portConstraint=eastwest;top=0;left=0;right=0;bottom=0;" vertex="1" parent="X6pj7YaXZ-_5lvFSQrNL-1">
          <mxGeometry y="360" width="180" height="30" as="geometry" />
        </mxCell>
        <mxCell id="X6pj7YaXZ-_5lvFSQrNL-78" value="&lt;b&gt;B&lt;/b&gt;" style="shape=partialRectangle;connectable=0;fillColor=none;top=0;left=0;bottom=0;right=0;editable=1;overflow=hidden;whiteSpace=wrap;html=1;" vertex="1" parent="X6pj7YaXZ-_5lvFSQrNL-77">
          <mxGeometry width="30" height="30" as="geometry">
            <mxRectangle width="30" height="30" as="alternateBounds" />
          </mxGeometry>
        </mxCell>
        <mxCell id="X6pj7YaXZ-_5lvFSQrNL-79" value="&lt;b&gt;USER_ACTIVE&lt;/b&gt;" style="shape=partialRectangle;connectable=0;fillColor=none;top=0;left=0;bottom=0;right=0;align=left;spacingLeft=6;overflow=hidden;whiteSpace=wrap;html=1;" vertex="1" parent="X6pj7YaXZ-_5lvFSQrNL-77">
          <mxGeometry x="30" width="150" height="30" as="geometry">
            <mxRectangle width="150" height="30" as="alternateBounds" />
          </mxGeometry>
        </mxCell>
        <mxCell id="X6pj7YaXZ-_5lvFSQrNL-29" value="EXPENSE" style="shape=table;startSize=30;container=1;collapsible=1;childLayout=tableLayout;fixedRows=1;rowLines=0;fontStyle=1;align=center;resizeLast=1;html=1;fillColor=#647687;fontColor=#ffffff;strokeColor=#314354;" vertex="1" parent="1">
          <mxGeometry x="560" width="180" height="240" as="geometry" />
        </mxCell>
        <mxCell id="X6pj7YaXZ-_5lvFSQrNL-30" value="" style="shape=tableRow;horizontal=0;startSize=0;swimlaneHead=0;swimlaneBody=0;fillColor=none;collapsible=0;dropTarget=0;points=[[0,0.5],[1,0.5]];portConstraint=eastwest;top=0;left=0;right=0;bottom=1;" vertex="1" parent="X6pj7YaXZ-_5lvFSQrNL-29">
          <mxGeometry y="30" width="180" height="30" as="geometry" />
        </mxCell>
        <mxCell id="X6pj7YaXZ-_5lvFSQrNL-31" value="PK&lt;div&gt;FK&lt;/div&gt;" style="shape=partialRectangle;connectable=0;fillColor=none;top=0;left=0;bottom=0;right=0;fontStyle=1;overflow=hidden;whiteSpace=wrap;html=1;" vertex="1" parent="X6pj7YaXZ-_5lvFSQrNL-30">
          <mxGeometry width="30" height="30" as="geometry">
            <mxRectangle width="30" height="30" as="alternateBounds" />
          </mxGeometry>
        </mxCell>
        <mxCell id="X6pj7YaXZ-_5lvFSQrNL-32" value="USER_ID" style="shape=partialRectangle;connectable=0;fillColor=none;top=0;left=0;bottom=0;right=0;align=left;spacingLeft=6;fontStyle=5;overflow=hidden;whiteSpace=wrap;html=1;" vertex="1" parent="X6pj7YaXZ-_5lvFSQrNL-30">
          <mxGeometry x="30" width="150" height="30" as="geometry">
            <mxRectangle width="150" height="30" as="alternateBounds" />
          </mxGeometry>
        </mxCell>
        <mxCell id="X6pj7YaXZ-_5lvFSQrNL-42" value="" style="shape=tableRow;horizontal=0;startSize=0;swimlaneHead=0;swimlaneBody=0;fillColor=none;collapsible=0;dropTarget=0;points=[[0,0.5],[1,0.5]];portConstraint=eastwest;top=0;left=0;right=0;bottom=1;" vertex="1" parent="X6pj7YaXZ-_5lvFSQrNL-29">
          <mxGeometry y="60" width="180" height="30" as="geometry" />
        </mxCell>
        <mxCell id="X6pj7YaXZ-_5lvFSQrNL-43" value="PK" style="shape=partialRectangle;connectable=0;fillColor=none;top=0;left=0;bottom=0;right=0;fontStyle=1;overflow=hidden;whiteSpace=wrap;html=1;" vertex="1" parent="X6pj7YaXZ-_5lvFSQrNL-42">
          <mxGeometry width="30" height="30" as="geometry">
            <mxRectangle width="30" height="30" as="alternateBounds" />
          </mxGeometry>
        </mxCell>
        <mxCell id="X6pj7YaXZ-_5lvFSQrNL-44" value="EXP_SEQ" style="shape=partialRectangle;connectable=0;fillColor=none;top=0;left=0;bottom=0;right=0;align=left;spacingLeft=6;fontStyle=5;overflow=hidden;whiteSpace=wrap;html=1;" vertex="1" parent="X6pj7YaXZ-_5lvFSQrNL-42">
          <mxGeometry x="30" width="150" height="30" as="geometry">
            <mxRectangle width="150" height="30" as="alternateBounds" />
          </mxGeometry>
        </mxCell>
        <mxCell id="X6pj7YaXZ-_5lvFSQrNL-33" value="" style="shape=tableRow;horizontal=0;startSize=0;swimlaneHead=0;swimlaneBody=0;fillColor=none;collapsible=0;dropTarget=0;points=[[0,0.5],[1,0.5]];portConstraint=eastwest;top=0;left=0;right=0;bottom=0;" vertex="1" parent="X6pj7YaXZ-_5lvFSQrNL-29">
          <mxGeometry y="90" width="180" height="30" as="geometry" />
        </mxCell>
        <mxCell id="X6pj7YaXZ-_5lvFSQrNL-34" value="" style="shape=partialRectangle;connectable=0;fillColor=none;top=0;left=0;bottom=0;right=0;editable=1;overflow=hidden;whiteSpace=wrap;html=1;" vertex="1" parent="X6pj7YaXZ-_5lvFSQrNL-33">
          <mxGeometry width="30" height="30" as="geometry">
            <mxRectangle width="30" height="30" as="alternateBounds" />
          </mxGeometry>
        </mxCell>
        <mxCell id="X6pj7YaXZ-_5lvFSQrNL-35" value="&lt;b&gt;EXP_AMT&lt;/b&gt;" style="shape=partialRectangle;connectable=0;fillColor=none;top=0;left=0;bottom=0;right=0;align=left;spacingLeft=6;overflow=hidden;whiteSpace=wrap;html=1;" vertex="1" parent="X6pj7YaXZ-_5lvFSQrNL-33">
          <mxGeometry x="30" width="150" height="30" as="geometry">
            <mxRectangle width="150" height="30" as="alternateBounds" />
          </mxGeometry>
        </mxCell>
        <mxCell id="X6pj7YaXZ-_5lvFSQrNL-36" value="" style="shape=tableRow;horizontal=0;startSize=0;swimlaneHead=0;swimlaneBody=0;fillColor=none;collapsible=0;dropTarget=0;points=[[0,0.5],[1,0.5]];portConstraint=eastwest;top=0;left=0;right=0;bottom=0;" vertex="1" parent="X6pj7YaXZ-_5lvFSQrNL-29">
          <mxGeometry y="120" width="180" height="30" as="geometry" />
        </mxCell>
        <mxCell id="X6pj7YaXZ-_5lvFSQrNL-37" value="" style="shape=partialRectangle;connectable=0;fillColor=none;top=0;left=0;bottom=0;right=0;editable=1;overflow=hidden;whiteSpace=wrap;html=1;" vertex="1" parent="X6pj7YaXZ-_5lvFSQrNL-36">
          <mxGeometry width="30" height="30" as="geometry">
            <mxRectangle width="30" height="30" as="alternateBounds" />
          </mxGeometry>
        </mxCell>
        <mxCell id="X6pj7YaXZ-_5lvFSQrNL-38" value="EXP_DESC" style="shape=partialRectangle;connectable=0;fillColor=none;top=0;left=0;bottom=0;right=0;align=left;spacingLeft=6;overflow=hidden;whiteSpace=wrap;html=1;" vertex="1" parent="X6pj7YaXZ-_5lvFSQrNL-36">
          <mxGeometry x="30" width="150" height="30" as="geometry">
            <mxRectangle width="150" height="30" as="alternateBounds" />
          </mxGeometry>
        </mxCell>
        <mxCell id="X6pj7YaXZ-_5lvFSQrNL-39" value="" style="shape=tableRow;horizontal=0;startSize=0;swimlaneHead=0;swimlaneBody=0;fillColor=none;collapsible=0;dropTarget=0;points=[[0,0.5],[1,0.5]];portConstraint=eastwest;top=0;left=0;right=0;bottom=0;" vertex="1" parent="X6pj7YaXZ-_5lvFSQrNL-29">
          <mxGeometry y="150" width="180" height="30" as="geometry" />
        </mxCell>
        <mxCell id="X6pj7YaXZ-_5lvFSQrNL-40" value="" style="shape=partialRectangle;connectable=0;fillColor=none;top=0;left=0;bottom=0;right=0;editable=1;overflow=hidden;whiteSpace=wrap;html=1;" vertex="1" parent="X6pj7YaXZ-_5lvFSQrNL-39">
          <mxGeometry width="30" height="30" as="geometry">
            <mxRectangle width="30" height="30" as="alternateBounds" />
          </mxGeometry>
        </mxCell>
        <mxCell id="X6pj7YaXZ-_5lvFSQrNL-41" value="EXP_DATE" style="shape=partialRectangle;connectable=0;fillColor=none;top=0;left=0;bottom=0;right=0;align=left;spacingLeft=6;overflow=hidden;whiteSpace=wrap;html=1;fontStyle=1" vertex="1" parent="X6pj7YaXZ-_5lvFSQrNL-39">
          <mxGeometry x="30" width="150" height="30" as="geometry">
            <mxRectangle width="150" height="30" as="alternateBounds" />
          </mxGeometry>
        </mxCell>
        <mxCell id="X6pj7YaXZ-_5lvFSQrNL-48" value="" style="shape=tableRow;horizontal=0;startSize=0;swimlaneHead=0;swimlaneBody=0;fillColor=none;collapsible=0;dropTarget=0;points=[[0,0.5],[1,0.5]];portConstraint=eastwest;top=0;left=0;right=0;bottom=0;" vertex="1" parent="X6pj7YaXZ-_5lvFSQrNL-29">
          <mxGeometry y="180" width="180" height="30" as="geometry" />
        </mxCell>
        <mxCell id="X6pj7YaXZ-_5lvFSQrNL-49" value="&lt;b&gt;AR&lt;/b&gt;" style="shape=partialRectangle;connectable=0;fillColor=none;top=0;left=0;bottom=0;right=0;editable=1;overflow=hidden;whiteSpace=wrap;html=1;" vertex="1" parent="X6pj7YaXZ-_5lvFSQrNL-48">
          <mxGeometry width="30" height="30" as="geometry">
            <mxRectangle width="30" height="30" as="alternateBounds" />
          </mxGeometry>
        </mxCell>
        <mxCell id="X6pj7YaXZ-_5lvFSQrNL-50" value="EXP_CAT" style="shape=partialRectangle;connectable=0;fillColor=none;top=0;left=0;bottom=0;right=0;align=left;spacingLeft=6;overflow=hidden;whiteSpace=wrap;html=1;fontStyle=1" vertex="1" parent="X6pj7YaXZ-_5lvFSQrNL-48">
          <mxGeometry x="30" width="150" height="30" as="geometry">
            <mxRectangle width="150" height="30" as="alternateBounds" />
          </mxGeometry>
        </mxCell>
        <mxCell id="X6pj7YaXZ-_5lvFSQrNL-52" value="" style="shape=tableRow;horizontal=0;startSize=0;swimlaneHead=0;swimlaneBody=0;fillColor=none;collapsible=0;dropTarget=0;points=[[0,0.5],[1,0.5]];portConstraint=eastwest;top=0;left=0;right=0;bottom=0;" vertex="1" parent="X6pj7YaXZ-_5lvFSQrNL-29">
          <mxGeometry y="210" width="180" height="30" as="geometry" />
        </mxCell>
        <mxCell id="X6pj7YaXZ-_5lvFSQrNL-53" value="&lt;b&gt;B&lt;/b&gt;" style="shape=partialRectangle;connectable=0;fillColor=none;top=0;left=0;bottom=0;right=0;editable=1;overflow=hidden;whiteSpace=wrap;html=1;" vertex="1" parent="X6pj7YaXZ-_5lvFSQrNL-52">
          <mxGeometry width="30" height="30" as="geometry">
            <mxRectangle width="30" height="30" as="alternateBounds" />
          </mxGeometry>
        </mxCell>
        <mxCell id="X6pj7YaXZ-_5lvFSQrNL-54" value="EXP_ACTIVE" style="shape=partialRectangle;connectable=0;fillColor=none;top=0;left=0;bottom=0;right=0;align=left;spacingLeft=6;overflow=hidden;whiteSpace=wrap;html=1;fontStyle=1" vertex="1" parent="X6pj7YaXZ-_5lvFSQrNL-52">
          <mxGeometry x="30" width="150" height="30" as="geometry">
            <mxRectangle width="150" height="30" as="alternateBounds" />
          </mxGeometry>
        </mxCell>
        <mxCell id="X6pj7YaXZ-_5lvFSQrNL-51" value="creates" style="edgeStyle=orthogonalEdgeStyle;rounded=1;orthogonalLoop=1;jettySize=auto;html=1;entryX=0;entryY=0.5;entryDx=0;entryDy=0;endArrow=ERzeroToMany;endFill=0;startArrow=ERmandOne;startFill=0;curved=0;" edge="1" parent="1" source="X6pj7YaXZ-_5lvFSQrNL-2" target="X6pj7YaXZ-_5lvFSQrNL-30">
          <mxGeometry relative="1" as="geometry">
            <Array as="points">
              <mxPoint x="490" y="45" />
              <mxPoint x="490" y="45" />
            </Array>
          </mxGeometry>
        </mxCell>
        <mxCell id="X6pj7YaXZ-_5lvFSQrNL-55" value="BUDGET" style="shape=table;startSize=30;container=1;collapsible=1;childLayout=tableLayout;fixedRows=1;rowLines=0;fontStyle=1;align=center;resizeLast=1;html=1;fillColor=#647687;fontColor=#ffffff;strokeColor=#314354;" vertex="1" parent="1">
          <mxGeometry width="180" height="240" as="geometry" />
        </mxCell>
        <mxCell id="X6pj7YaXZ-_5lvFSQrNL-56" value="" style="shape=tableRow;horizontal=0;startSize=0;swimlaneHead=0;swimlaneBody=0;fillColor=none;collapsible=0;dropTarget=0;points=[[0,0.5],[1,0.5]];portConstraint=eastwest;top=0;left=0;right=0;bottom=1;" vertex="1" parent="X6pj7YaXZ-_5lvFSQrNL-55">
          <mxGeometry y="30" width="180" height="30" as="geometry" />
        </mxCell>
        <mxCell id="X6pj7YaXZ-_5lvFSQrNL-57" value="PK&lt;div&gt;FK&lt;/div&gt;" style="shape=partialRectangle;connectable=0;fillColor=none;top=0;left=0;bottom=0;right=0;fontStyle=1;overflow=hidden;whiteSpace=wrap;html=1;" vertex="1" parent="X6pj7YaXZ-_5lvFSQrNL-56">
          <mxGeometry width="30" height="30" as="geometry">
            <mxRectangle width="30" height="30" as="alternateBounds" />
          </mxGeometry>
        </mxCell>
        <mxCell id="X6pj7YaXZ-_5lvFSQrNL-58" value="USER_ID" style="shape=partialRectangle;connectable=0;fillColor=none;top=0;left=0;bottom=0;right=0;align=left;spacingLeft=6;fontStyle=5;overflow=hidden;whiteSpace=wrap;html=1;" vertex="1" parent="X6pj7YaXZ-_5lvFSQrNL-56">
          <mxGeometry x="30" width="150" height="30" as="geometry">
            <mxRectangle width="150" height="30" as="alternateBounds" />
          </mxGeometry>
        </mxCell>
        <mxCell id="X6pj7YaXZ-_5lvFSQrNL-68" value="" style="shape=tableRow;horizontal=0;startSize=0;swimlaneHead=0;swimlaneBody=0;fillColor=none;collapsible=0;dropTarget=0;points=[[0,0.5],[1,0.5]];portConstraint=eastwest;top=0;left=0;right=0;bottom=1;" vertex="1" parent="X6pj7YaXZ-_5lvFSQrNL-55">
          <mxGeometry y="60" width="180" height="30" as="geometry" />
        </mxCell>
        <mxCell id="X6pj7YaXZ-_5lvFSQrNL-69" value="PK" style="shape=partialRectangle;connectable=0;fillColor=none;top=0;left=0;bottom=0;right=0;fontStyle=1;overflow=hidden;whiteSpace=wrap;html=1;" vertex="1" parent="X6pj7YaXZ-_5lvFSQrNL-68">
          <mxGeometry width="30" height="30" as="geometry">
            <mxRectangle width="30" height="30" as="alternateBounds" />
          </mxGeometry>
        </mxCell>
        <mxCell id="X6pj7YaXZ-_5lvFSQrNL-70" value="BUD_SEQ" style="shape=partialRectangle;connectable=0;fillColor=none;top=0;left=0;bottom=0;right=0;align=left;spacingLeft=6;fontStyle=5;overflow=hidden;whiteSpace=wrap;html=1;" vertex="1" parent="X6pj7YaXZ-_5lvFSQrNL-68">
          <mxGeometry x="30" width="150" height="30" as="geometry">
            <mxRectangle width="150" height="30" as="alternateBounds" />
          </mxGeometry>
        </mxCell>
        <mxCell id="X6pj7YaXZ-_5lvFSQrNL-59" value="" style="shape=tableRow;horizontal=0;startSize=0;swimlaneHead=0;swimlaneBody=0;fillColor=none;collapsible=0;dropTarget=0;points=[[0,0.5],[1,0.5]];portConstraint=eastwest;top=0;left=0;right=0;bottom=0;" vertex="1" parent="X6pj7YaXZ-_5lvFSQrNL-55">
          <mxGeometry y="90" width="180" height="30" as="geometry" />
        </mxCell>
        <mxCell id="X6pj7YaXZ-_5lvFSQrNL-60" value="" style="shape=partialRectangle;connectable=0;fillColor=none;top=0;left=0;bottom=0;right=0;editable=1;overflow=hidden;whiteSpace=wrap;html=1;" vertex="1" parent="X6pj7YaXZ-_5lvFSQrNL-59">
          <mxGeometry width="30" height="30" as="geometry">
            <mxRectangle width="30" height="30" as="alternateBounds" />
          </mxGeometry>
        </mxCell>
        <mxCell id="X6pj7YaXZ-_5lvFSQrNL-61" value="&lt;b&gt;BUD_AMT&lt;/b&gt;" style="shape=partialRectangle;connectable=0;fillColor=none;top=0;left=0;bottom=0;right=0;align=left;spacingLeft=6;overflow=hidden;whiteSpace=wrap;html=1;" vertex="1" parent="X6pj7YaXZ-_5lvFSQrNL-59">
          <mxGeometry x="30" width="150" height="30" as="geometry">
            <mxRectangle width="150" height="30" as="alternateBounds" />
          </mxGeometry>
        </mxCell>
        <mxCell id="X6pj7YaXZ-_5lvFSQrNL-62" value="" style="shape=tableRow;horizontal=0;startSize=0;swimlaneHead=0;swimlaneBody=0;fillColor=none;collapsible=0;dropTarget=0;points=[[0,0.5],[1,0.5]];portConstraint=eastwest;top=0;left=0;right=0;bottom=0;" vertex="1" parent="X6pj7YaXZ-_5lvFSQrNL-55">
          <mxGeometry y="120" width="180" height="30" as="geometry" />
        </mxCell>
        <mxCell id="X6pj7YaXZ-_5lvFSQrNL-63" value="" style="shape=partialRectangle;connectable=0;fillColor=none;top=0;left=0;bottom=0;right=0;editable=1;overflow=hidden;whiteSpace=wrap;html=1;" vertex="1" parent="X6pj7YaXZ-_5lvFSQrNL-62">
          <mxGeometry width="30" height="30" as="geometry">
            <mxRectangle width="30" height="30" as="alternateBounds" />
          </mxGeometry>
        </mxCell>
        <mxCell id="X6pj7YaXZ-_5lvFSQrNL-64" value="BUD_DESC" style="shape=partialRectangle;connectable=0;fillColor=none;top=0;left=0;bottom=0;right=0;align=left;spacingLeft=6;overflow=hidden;whiteSpace=wrap;html=1;" vertex="1" parent="X6pj7YaXZ-_5lvFSQrNL-62">
          <mxGeometry x="30" width="150" height="30" as="geometry">
            <mxRectangle width="150" height="30" as="alternateBounds" />
          </mxGeometry>
        </mxCell>
        <mxCell id="X6pj7YaXZ-_5lvFSQrNL-65" value="" style="shape=tableRow;horizontal=0;startSize=0;swimlaneHead=0;swimlaneBody=0;fillColor=none;collapsible=0;dropTarget=0;points=[[0,0.5],[1,0.5]];portConstraint=eastwest;top=0;left=0;right=0;bottom=0;" vertex="1" parent="X6pj7YaXZ-_5lvFSQrNL-55">
          <mxGeometry y="150" width="180" height="30" as="geometry" />
        </mxCell>
        <mxCell id="X6pj7YaXZ-_5lvFSQrNL-66" value="" style="shape=partialRectangle;connectable=0;fillColor=none;top=0;left=0;bottom=0;right=0;editable=1;overflow=hidden;whiteSpace=wrap;html=1;" vertex="1" parent="X6pj7YaXZ-_5lvFSQrNL-65">
          <mxGeometry width="30" height="30" as="geometry">
            <mxRectangle width="30" height="30" as="alternateBounds" />
          </mxGeometry>
        </mxCell>
        <mxCell id="X6pj7YaXZ-_5lvFSQrNL-67" value="&lt;b&gt;BUD_START_DATE&lt;/b&gt;" style="shape=partialRectangle;connectable=0;fillColor=none;top=0;left=0;bottom=0;right=0;align=left;spacingLeft=6;overflow=hidden;whiteSpace=wrap;html=1;" vertex="1" parent="X6pj7YaXZ-_5lvFSQrNL-65">
          <mxGeometry x="30" width="150" height="30" as="geometry">
            <mxRectangle width="150" height="30" as="alternateBounds" />
          </mxGeometry>
        </mxCell>
        <mxCell id="X6pj7YaXZ-_5lvFSQrNL-71" value="" style="shape=tableRow;horizontal=0;startSize=0;swimlaneHead=0;swimlaneBody=0;fillColor=none;collapsible=0;dropTarget=0;points=[[0,0.5],[1,0.5]];portConstraint=eastwest;top=0;left=0;right=0;bottom=0;" vertex="1" parent="X6pj7YaXZ-_5lvFSQrNL-55">
          <mxGeometry y="180" width="180" height="30" as="geometry" />
        </mxCell>
        <mxCell id="X6pj7YaXZ-_5lvFSQrNL-72" value="" style="shape=partialRectangle;connectable=0;fillColor=none;top=0;left=0;bottom=0;right=0;editable=1;overflow=hidden;whiteSpace=wrap;html=1;" vertex="1" parent="X6pj7YaXZ-_5lvFSQrNL-71">
          <mxGeometry width="30" height="30" as="geometry">
            <mxRectangle width="30" height="30" as="alternateBounds" />
          </mxGeometry>
        </mxCell>
        <mxCell id="X6pj7YaXZ-_5lvFSQrNL-73" value="&lt;b&gt;BUD_END_DATE&lt;/b&gt;" style="shape=partialRectangle;connectable=0;fillColor=none;top=0;left=0;bottom=0;right=0;align=left;spacingLeft=6;overflow=hidden;whiteSpace=wrap;html=1;" vertex="1" parent="X6pj7YaXZ-_5lvFSQrNL-71">
          <mxGeometry x="30" width="150" height="30" as="geometry">
            <mxRectangle width="150" height="30" as="alternateBounds" />
          </mxGeometry>
        </mxCell>
        <mxCell id="X6pj7YaXZ-_5lvFSQrNL-74" value="" style="shape=tableRow;horizontal=0;startSize=0;swimlaneHead=0;swimlaneBody=0;fillColor=none;collapsible=0;dropTarget=0;points=[[0,0.5],[1,0.5]];portConstraint=eastwest;top=0;left=0;right=0;bottom=0;" vertex="1" parent="X6pj7YaXZ-_5lvFSQrNL-55">
          <mxGeometry y="210" width="180" height="30" as="geometry" />
        </mxCell>
        <mxCell id="X6pj7YaXZ-_5lvFSQrNL-75" value="&lt;b&gt;B&lt;/b&gt;" style="shape=partialRectangle;connectable=0;fillColor=none;top=0;left=0;bottom=0;right=0;editable=1;overflow=hidden;whiteSpace=wrap;html=1;fontStyle=0" vertex="1" parent="X6pj7YaXZ-_5lvFSQrNL-74">
          <mxGeometry width="30" height="30" as="geometry">
            <mxRectangle width="30" height="30" as="alternateBounds" />
          </mxGeometry>
        </mxCell>
        <mxCell id="X6pj7YaXZ-_5lvFSQrNL-76" value="&lt;b&gt;BUD_ACTIVE&lt;/b&gt;" style="shape=partialRectangle;connectable=0;fillColor=none;top=0;left=0;bottom=0;right=0;align=left;spacingLeft=6;overflow=hidden;whiteSpace=wrap;html=1;" vertex="1" parent="X6pj7YaXZ-_5lvFSQrNL-74">
          <mxGeometry x="30" width="150" height="30" as="geometry">
            <mxRectangle width="150" height="30" as="alternateBounds" />
          </mxGeometry>
        </mxCell>
        <mxCell id="X6pj7YaXZ-_5lvFSQrNL-80" value="creates" style="edgeStyle=orthogonalEdgeStyle;rounded=1;orthogonalLoop=1;jettySize=auto;html=1;entryX=1;entryY=0.5;entryDx=0;entryDy=0;endArrow=ERzeroToMany;endFill=0;startArrow=ERmandOne;startFill=0;curved=0;" edge="1" parent="1" source="X6pj7YaXZ-_5lvFSQrNL-2" target="X6pj7YaXZ-_5lvFSQrNL-56">
          <mxGeometry relative="1" as="geometry" />
        </mxCell>
        <mxCell id="X6pj7YaXZ-_5lvFSQrNL-145" value="SETTING" style="shape=table;startSize=30;container=1;collapsible=1;childLayout=tableLayout;fixedRows=1;rowLines=0;fontStyle=1;align=center;resizeLast=1;html=1;fillColor=#647687;fontColor=#ffffff;strokeColor=#314354;" vertex="1" parent="1">
          <mxGeometry x="560" y="250" width="180" height="120" as="geometry" />
        </mxCell>
        <mxCell id="X6pj7YaXZ-_5lvFSQrNL-146" value="" style="shape=tableRow;horizontal=0;startSize=0;swimlaneHead=0;swimlaneBody=0;fillColor=none;collapsible=0;dropTarget=0;points=[[0,0.5],[1,0.5]];portConstraint=eastwest;top=0;left=0;right=0;bottom=1;" vertex="1" parent="X6pj7YaXZ-_5lvFSQrNL-145">
          <mxGeometry y="30" width="180" height="30" as="geometry" />
        </mxCell>
        <mxCell id="X6pj7YaXZ-_5lvFSQrNL-147" value="PK&lt;div&gt;FK&lt;/div&gt;" style="shape=partialRectangle;connectable=0;fillColor=none;top=0;left=0;bottom=0;right=0;fontStyle=1;overflow=hidden;whiteSpace=wrap;html=1;" vertex="1" parent="X6pj7YaXZ-_5lvFSQrNL-146">
          <mxGeometry width="30" height="30" as="geometry">
            <mxRectangle width="30" height="30" as="alternateBounds" />
          </mxGeometry>
        </mxCell>
        <mxCell id="X6pj7YaXZ-_5lvFSQrNL-148" value="USER_ID" style="shape=partialRectangle;connectable=0;fillColor=none;top=0;left=0;bottom=0;right=0;align=left;spacingLeft=6;fontStyle=5;overflow=hidden;whiteSpace=wrap;html=1;" vertex="1" parent="X6pj7YaXZ-_5lvFSQrNL-146">
          <mxGeometry x="30" width="150" height="30" as="geometry">
            <mxRectangle width="150" height="30" as="alternateBounds" />
          </mxGeometry>
        </mxCell>
        <mxCell id="X6pj7YaXZ-_5lvFSQrNL-149" value="" style="shape=tableRow;horizontal=0;startSize=0;swimlaneHead=0;swimlaneBody=0;fillColor=none;collapsible=0;dropTarget=0;points=[[0,0.5],[1,0.5]];portConstraint=eastwest;top=0;left=0;right=0;bottom=0;" vertex="1" parent="X6pj7YaXZ-_5lvFSQrNL-145">
          <mxGeometry y="60" width="180" height="30" as="geometry" />
        </mxCell>
        <mxCell id="X6pj7YaXZ-_5lvFSQrNL-150" value="&lt;b&gt;AR&lt;/b&gt;" style="shape=partialRectangle;connectable=0;fillColor=none;top=0;left=0;bottom=0;right=0;editable=1;overflow=hidden;whiteSpace=wrap;html=1;" vertex="1" parent="X6pj7YaXZ-_5lvFSQrNL-149">
          <mxGeometry width="30" height="30" as="geometry">
            <mxRectangle width="30" height="30" as="alternateBounds" />
          </mxGeometry>
        </mxCell>
        <mxCell id="X6pj7YaXZ-_5lvFSQrNL-151" value="&lt;b&gt;PAGE_MODE&lt;/b&gt;" style="shape=partialRectangle;connectable=0;fillColor=none;top=0;left=0;bottom=0;right=0;align=left;spacingLeft=6;overflow=hidden;whiteSpace=wrap;html=1;" vertex="1" parent="X6pj7YaXZ-_5lvFSQrNL-149">
          <mxGeometry x="30" width="150" height="30" as="geometry">
            <mxRectangle width="150" height="30" as="alternateBounds" />
          </mxGeometry>
        </mxCell>
        <mxCell id="X6pj7YaXZ-_5lvFSQrNL-152" value="" style="shape=tableRow;horizontal=0;startSize=0;swimlaneHead=0;swimlaneBody=0;fillColor=none;collapsible=0;dropTarget=0;points=[[0,0.5],[1,0.5]];portConstraint=eastwest;top=0;left=0;right=0;bottom=0;" vertex="1" parent="X6pj7YaXZ-_5lvFSQrNL-145">
          <mxGeometry y="90" width="180" height="30" as="geometry" />
        </mxCell>
        <mxCell id="X6pj7YaXZ-_5lvFSQrNL-153" value="&lt;b&gt;FK&lt;/b&gt;" style="shape=partialRectangle;connectable=0;fillColor=none;top=0;left=0;bottom=0;right=0;editable=1;overflow=hidden;whiteSpace=wrap;html=1;" vertex="1" parent="X6pj7YaXZ-_5lvFSQrNL-152">
          <mxGeometry width="30" height="30" as="geometry">
            <mxRectangle width="30" height="30" as="alternateBounds" />
          </mxGeometry>
        </mxCell>
        <mxCell id="X6pj7YaXZ-_5lvFSQrNL-154" value="&lt;b&gt;CURR_CODE&lt;/b&gt;" style="shape=partialRectangle;connectable=0;fillColor=none;top=0;left=0;bottom=0;right=0;align=left;spacingLeft=6;overflow=hidden;whiteSpace=wrap;html=1;" vertex="1" parent="X6pj7YaXZ-_5lvFSQrNL-152">
          <mxGeometry x="30" width="150" height="30" as="geometry">
            <mxRectangle width="150" height="30" as="alternateBounds" />
          </mxGeometry>
        </mxCell>
        <mxCell id="X6pj7YaXZ-_5lvFSQrNL-158" value="automatically&lt;div&gt;generates&lt;/div&gt;" style="edgeStyle=orthogonalEdgeStyle;rounded=1;orthogonalLoop=1;jettySize=auto;html=1;entryX=0;entryY=0.5;entryDx=0;entryDy=0;curved=0;endArrow=ERmandOne;endFill=0;startArrow=ERmandOne;startFill=0;" edge="1" parent="1" source="X6pj7YaXZ-_5lvFSQrNL-2" target="X6pj7YaXZ-_5lvFSQrNL-146">
          <mxGeometry relative="1" as="geometry" />
        </mxCell>
        <mxCell id="1juzW6bf5Yi3JQukz339-6" value="" style="group" connectable="0" vertex="1" parent="1">
          <mxGeometry x="850" y="10" width="385" height="575" as="geometry" />
        </mxCell>
        <mxCell id="X6pj7YaXZ-_5lvFSQrNL-87" style="edgeStyle=orthogonalEdgeStyle;rounded=0;orthogonalLoop=1;jettySize=auto;html=1;entryX=0.5;entryY=0;entryDx=0;entryDy=0;" edge="1" parent="1juzW6bf5Yi3JQukz339-6" source="X6pj7YaXZ-_5lvFSQrNL-84" target="X6pj7YaXZ-_5lvFSQrNL-91">
          <mxGeometry relative="1" as="geometry" />
        </mxCell>
        <mxCell id="X6pj7YaXZ-_5lvFSQrNL-84" value="login" style="strokeWidth=2;html=1;shape=mxgraph.flowchart.terminator;whiteSpace=wrap;container=0;" vertex="1" parent="1juzW6bf5Yi3JQukz339-6">
          <mxGeometry x="10" width="150" height="60" as="geometry" />
        </mxCell>
        <mxCell id="X6pj7YaXZ-_5lvFSQrNL-86" value="check credentials" style="rounded=1;whiteSpace=wrap;html=1;absoluteArcSize=1;arcSize=14;strokeWidth=2;container=0;" vertex="1" parent="1juzW6bf5Yi3JQukz339-6">
          <mxGeometry x="10" y="240" width="150" height="50" as="geometry" />
        </mxCell>
        <mxCell id="X6pj7YaXZ-_5lvFSQrNL-88" value="correct&lt;div&gt;credentials?&lt;/div&gt;" style="strokeWidth=2;html=1;shape=mxgraph.flowchart.decision;whiteSpace=wrap;container=0;" vertex="1" parent="1juzW6bf5Yi3JQukz339-6">
          <mxGeometry x="25" y="330" width="120" height="120" as="geometry" />
        </mxCell>
        <mxCell id="X6pj7YaXZ-_5lvFSQrNL-90" style="edgeStyle=orthogonalEdgeStyle;rounded=0;orthogonalLoop=1;jettySize=auto;html=1;entryX=0.5;entryY=0;entryDx=0;entryDy=0;entryPerimeter=0;" edge="1" parent="1juzW6bf5Yi3JQukz339-6" source="X6pj7YaXZ-_5lvFSQrNL-86" target="X6pj7YaXZ-_5lvFSQrNL-88">
          <mxGeometry relative="1" as="geometry" />
        </mxCell>
        <mxCell id="X6pj7YaXZ-_5lvFSQrNL-92" style="edgeStyle=orthogonalEdgeStyle;rounded=0;orthogonalLoop=1;jettySize=auto;html=1;entryX=0.5;entryY=0;entryDx=0;entryDy=0;" edge="1" parent="1juzW6bf5Yi3JQukz339-6" source="X6pj7YaXZ-_5lvFSQrNL-91" target="X6pj7YaXZ-_5lvFSQrNL-86">
          <mxGeometry relative="1" as="geometry" />
        </mxCell>
        <mxCell id="X6pj7YaXZ-_5lvFSQrNL-91" value="username&lt;div&gt;&amp;amp;&lt;/div&gt;&lt;div&gt;password&lt;/div&gt;" style="shape=parallelogram;html=1;strokeWidth=2;perimeter=parallelogramPerimeter;whiteSpace=wrap;rounded=1;arcSize=12;size=0.23;container=0;" vertex="1" parent="1juzW6bf5Yi3JQukz339-6">
          <mxGeometry y="120" width="170" height="60" as="geometry" />
        </mxCell>
        <mxCell id="X6pj7YaXZ-_5lvFSQrNL-93" value="no" style="edgeStyle=orthogonalEdgeStyle;rounded=0;orthogonalLoop=1;jettySize=auto;html=1;entryX=0.5;entryY=1;entryDx=0;entryDy=0;" edge="1" parent="1juzW6bf5Yi3JQukz339-6" source="X6pj7YaXZ-_5lvFSQrNL-88" target="X6pj7YaXZ-_5lvFSQrNL-94">
          <mxGeometry x="0.3016" relative="1" as="geometry">
            <mxPoint x="395" y="290" as="targetPoint" />
            <Array as="points">
              <mxPoint x="310" y="390" />
            </Array>
            <mxPoint as="offset" />
          </mxGeometry>
        </mxCell>
        <mxCell id="X6pj7YaXZ-_5lvFSQrNL-94" value="inform user&amp;nbsp;&lt;div&gt;about the error&lt;/div&gt;" style="rounded=1;whiteSpace=wrap;html=1;absoluteArcSize=1;arcSize=14;strokeWidth=2;container=0;" vertex="1" parent="1juzW6bf5Yi3JQukz339-6">
          <mxGeometry x="235" y="190" width="150" height="50" as="geometry" />
        </mxCell>
        <mxCell id="X6pj7YaXZ-_5lvFSQrNL-95" style="edgeStyle=orthogonalEdgeStyle;rounded=0;orthogonalLoop=1;jettySize=auto;html=1;entryX=1;entryY=0.5;entryDx=0;entryDy=0;entryPerimeter=0;" edge="1" parent="1juzW6bf5Yi3JQukz339-6" source="X6pj7YaXZ-_5lvFSQrNL-94" target="X6pj7YaXZ-_5lvFSQrNL-84">
          <mxGeometry relative="1" as="geometry">
            <Array as="points">
              <mxPoint x="310" y="30" />
            </Array>
          </mxGeometry>
        </mxCell>
        <mxCell id="X6pj7YaXZ-_5lvFSQrNL-97" value="yes" style="edgeStyle=orthogonalEdgeStyle;rounded=0;orthogonalLoop=1;jettySize=auto;html=1;entryX=0.5;entryY=0;entryDx=0;entryDy=0;" edge="1" parent="1juzW6bf5Yi3JQukz339-6" source="X6pj7YaXZ-_5lvFSQrNL-88" target="X6pj7YaXZ-_5lvFSQrNL-98">
          <mxGeometry relative="1" as="geometry">
            <mxPoint x="85" y="530" as="targetPoint" />
          </mxGeometry>
        </mxCell>
        <mxCell id="X6pj7YaXZ-_5lvFSQrNL-98" value="store cookies" style="rounded=1;whiteSpace=wrap;html=1;absoluteArcSize=1;arcSize=14;strokeWidth=2;container=0;" vertex="1" parent="1juzW6bf5Yi3JQukz339-6">
          <mxGeometry x="10" y="520" width="150" height="50" as="geometry" />
        </mxCell>
        <mxCell id="X6pj7YaXZ-_5lvFSQrNL-100" value="direct user to dashboard&lt;div&gt;page&lt;/div&gt;" style="strokeWidth=2;html=1;shape=mxgraph.flowchart.terminator;whiteSpace=wrap;container=0;" vertex="1" parent="1juzW6bf5Yi3JQukz339-6">
          <mxGeometry x="220" y="515" width="150" height="60" as="geometry" />
        </mxCell>
        <mxCell id="X6pj7YaXZ-_5lvFSQrNL-101" style="edgeStyle=orthogonalEdgeStyle;rounded=0;orthogonalLoop=1;jettySize=auto;html=1;entryX=0;entryY=0.5;entryDx=0;entryDy=0;entryPerimeter=0;" edge="1" parent="1juzW6bf5Yi3JQukz339-6" source="X6pj7YaXZ-_5lvFSQrNL-98" target="X6pj7YaXZ-_5lvFSQrNL-100">
          <mxGeometry relative="1" as="geometry">
            <mxPoint x="190" y="545" as="targetPoint" />
            <Array as="points" />
          </mxGeometry>
        </mxCell>
        <mxCell id="X6pj7YaXZ-_5lvFSQrNL-105" value="&lt;h1 style=&quot;margin-top: 0px;&quot;&gt;login process&lt;/h1&gt;" style="text;html=1;whiteSpace=wrap;overflow=hidden;rounded=0;container=0;" vertex="1" parent="1juzW6bf5Yi3JQukz339-6">
          <mxGeometry x="155" y="440" width="180" height="50" as="geometry" />
        </mxCell>
        <mxCell id="R6BKgWY7cvKUN3QxwYgu-47" value="" style="group" connectable="0" vertex="1" parent="1">
          <mxGeometry x="870" y="800" width="570" height="770" as="geometry" />
        </mxCell>
        <mxCell id="R6BKgWY7cvKUN3QxwYgu-3" style="edgeStyle=orthogonalEdgeStyle;rounded=0;orthogonalLoop=1;jettySize=auto;html=1;" edge="1" parent="R6BKgWY7cvKUN3QxwYgu-47" source="R6BKgWY7cvKUN3QxwYgu-1" target="R6BKgWY7cvKUN3QxwYgu-2">
          <mxGeometry relative="1" as="geometry" />
        </mxCell>
        <mxCell id="R6BKgWY7cvKUN3QxwYgu-1" value="add budget" style="strokeWidth=2;html=1;shape=mxgraph.flowchart.terminator;whiteSpace=wrap;" vertex="1" parent="R6BKgWY7cvKUN3QxwYgu-47">
          <mxGeometry x="90" width="140" height="60" as="geometry" />
        </mxCell>
        <mxCell id="R6BKgWY7cvKUN3QxwYgu-2" value="&lt;b&gt;required:&lt;/b&gt;&amp;nbsp;budget amount, start, and&lt;div&gt;end dates.&lt;/div&gt;&lt;div&gt;&lt;br&gt;&lt;/div&gt;&lt;div&gt;&lt;b&gt;optional&lt;/b&gt;: budget description&lt;/div&gt;" style="shape=parallelogram;html=1;strokeWidth=2;perimeter=parallelogramPerimeter;whiteSpace=wrap;rounded=1;arcSize=12;size=0.23;" vertex="1" parent="R6BKgWY7cvKUN3QxwYgu-47">
          <mxGeometry y="110" width="320" height="80" as="geometry" />
        </mxCell>
        <mxCell id="R6BKgWY7cvKUN3QxwYgu-8" value="does the date overlap with any&amp;nbsp;&lt;div&gt;other budget dates of the user?&lt;/div&gt;" style="strokeWidth=2;html=1;shape=mxgraph.flowchart.decision;whiteSpace=wrap;" vertex="1" parent="R6BKgWY7cvKUN3QxwYgu-47">
          <mxGeometry x="40" y="230" width="240" height="100" as="geometry" />
        </mxCell>
        <mxCell id="R6BKgWY7cvKUN3QxwYgu-21" style="edgeStyle=orthogonalEdgeStyle;rounded=0;orthogonalLoop=1;jettySize=auto;html=1;" edge="1" parent="R6BKgWY7cvKUN3QxwYgu-47" source="R6BKgWY7cvKUN3QxwYgu-10" target="R6BKgWY7cvKUN3QxwYgu-20">
          <mxGeometry relative="1" as="geometry" />
        </mxCell>
        <mxCell id="R6BKgWY7cvKUN3QxwYgu-22" value="no" style="edgeLabel;html=1;align=center;verticalAlign=middle;resizable=0;points=[];" connectable="0" vertex="1" parent="R6BKgWY7cvKUN3QxwYgu-21">
          <mxGeometry x="-0.0644" y="-1" relative="1" as="geometry">
            <mxPoint as="offset" />
          </mxGeometry>
        </mxCell>
        <mxCell id="R6BKgWY7cvKUN3QxwYgu-25" value="yes" style="edgeStyle=orthogonalEdgeStyle;rounded=0;orthogonalLoop=1;jettySize=auto;html=1;entryX=0.5;entryY=0;entryDx=0;entryDy=0;" edge="1" parent="R6BKgWY7cvKUN3QxwYgu-47" source="R6BKgWY7cvKUN3QxwYgu-10" target="R6BKgWY7cvKUN3QxwYgu-24">
          <mxGeometry relative="1" as="geometry" />
        </mxCell>
        <mxCell id="R6BKgWY7cvKUN3QxwYgu-10" value="is today between the start&lt;div&gt;and end dates&lt;/div&gt;" style="strokeWidth=2;html=1;shape=mxgraph.flowchart.decision;whiteSpace=wrap;" vertex="1" parent="R6BKgWY7cvKUN3QxwYgu-47">
          <mxGeometry x="70" y="370" width="180" height="150" as="geometry" />
        </mxCell>
        <mxCell id="R6BKgWY7cvKUN3QxwYgu-13" value="insert budget to the database" style="rounded=1;whiteSpace=wrap;html=1;absoluteArcSize=1;arcSize=14;strokeWidth=2;" vertex="1" parent="R6BKgWY7cvKUN3QxwYgu-47">
          <mxGeometry x="360" y="590" width="170" height="60" as="geometry" />
        </mxCell>
        <mxCell id="R6BKgWY7cvKUN3QxwYgu-14" style="edgeStyle=orthogonalEdgeStyle;rounded=0;orthogonalLoop=1;jettySize=auto;html=1;entryX=0.5;entryY=0;entryDx=0;entryDy=0;entryPerimeter=0;" edge="1" parent="R6BKgWY7cvKUN3QxwYgu-47" source="R6BKgWY7cvKUN3QxwYgu-2" target="R6BKgWY7cvKUN3QxwYgu-8">
          <mxGeometry relative="1" as="geometry" />
        </mxCell>
        <mxCell id="R6BKgWY7cvKUN3QxwYgu-15" value="inform user about the error" style="strokeWidth=2;html=1;shape=mxgraph.flowchart.terminator;whiteSpace=wrap;" vertex="1" parent="R6BKgWY7cvKUN3QxwYgu-47">
          <mxGeometry x="350" y="150" width="170" height="70" as="geometry" />
        </mxCell>
        <mxCell id="R6BKgWY7cvKUN3QxwYgu-16" value="yes" style="edgeStyle=orthogonalEdgeStyle;rounded=0;orthogonalLoop=1;jettySize=auto;html=1;entryX=0.5;entryY=1;entryDx=0;entryDy=0;entryPerimeter=0;" edge="1" parent="R6BKgWY7cvKUN3QxwYgu-47" source="R6BKgWY7cvKUN3QxwYgu-8" target="R6BKgWY7cvKUN3QxwYgu-15">
          <mxGeometry relative="1" as="geometry" />
        </mxCell>
        <mxCell id="R6BKgWY7cvKUN3QxwYgu-17" style="edgeStyle=orthogonalEdgeStyle;rounded=0;orthogonalLoop=1;jettySize=auto;html=1;entryX=1;entryY=0.5;entryDx=0;entryDy=0;entryPerimeter=0;" edge="1" parent="R6BKgWY7cvKUN3QxwYgu-47" source="R6BKgWY7cvKUN3QxwYgu-15" target="R6BKgWY7cvKUN3QxwYgu-1">
          <mxGeometry relative="1" as="geometry">
            <Array as="points">
              <mxPoint x="435" y="30" />
            </Array>
          </mxGeometry>
        </mxCell>
        <mxCell id="R6BKgWY7cvKUN3QxwYgu-18" style="edgeStyle=orthogonalEdgeStyle;rounded=0;orthogonalLoop=1;jettySize=auto;html=1;entryX=0.5;entryY=0;entryDx=0;entryDy=0;entryPerimeter=0;" edge="1" parent="R6BKgWY7cvKUN3QxwYgu-47" source="R6BKgWY7cvKUN3QxwYgu-8" target="R6BKgWY7cvKUN3QxwYgu-10">
          <mxGeometry relative="1" as="geometry" />
        </mxCell>
        <mxCell id="R6BKgWY7cvKUN3QxwYgu-19" value="no" style="edgeLabel;html=1;align=center;verticalAlign=middle;resizable=0;points=[];" connectable="0" vertex="1" parent="R6BKgWY7cvKUN3QxwYgu-18">
          <mxGeometry x="-0.3544" y="-1" relative="1" as="geometry">
            <mxPoint as="offset" />
          </mxGeometry>
        </mxCell>
        <mxCell id="R6BKgWY7cvKUN3QxwYgu-27" style="edgeStyle=orthogonalEdgeStyle;rounded=0;orthogonalLoop=1;jettySize=auto;html=1;entryX=0.5;entryY=0;entryDx=0;entryDy=0;" edge="1" parent="R6BKgWY7cvKUN3QxwYgu-47" source="R6BKgWY7cvKUN3QxwYgu-20" target="R6BKgWY7cvKUN3QxwYgu-13">
          <mxGeometry relative="1" as="geometry" />
        </mxCell>
        <mxCell id="R6BKgWY7cvKUN3QxwYgu-20" value="&lt;b&gt;output&lt;/b&gt;&lt;div&gt;&lt;u&gt;required&lt;/u&gt;: budget sequence,&lt;/div&gt;&lt;div&gt;budget start and end dates;&lt;/div&gt;&lt;div&gt;&lt;i&gt;budget active of 0&lt;/i&gt;&lt;/div&gt;&lt;div&gt;&lt;br&gt;&lt;/div&gt;&lt;div&gt;&lt;u&gt;optional&lt;/u&gt;: budget&lt;/div&gt;&lt;div&gt;description&lt;/div&gt;" style="shape=parallelogram;html=1;strokeWidth=2;perimeter=parallelogramPerimeter;whiteSpace=wrap;rounded=1;arcSize=12;size=0.23;" vertex="1" parent="R6BKgWY7cvKUN3QxwYgu-47">
          <mxGeometry x="320" y="395" width="250" height="100" as="geometry" />
        </mxCell>
        <mxCell id="R6BKgWY7cvKUN3QxwYgu-26" style="edgeStyle=orthogonalEdgeStyle;rounded=0;orthogonalLoop=1;jettySize=auto;html=1;entryX=0;entryY=0.5;entryDx=0;entryDy=0;" edge="1" parent="R6BKgWY7cvKUN3QxwYgu-47" source="R6BKgWY7cvKUN3QxwYgu-24" target="R6BKgWY7cvKUN3QxwYgu-13">
          <mxGeometry relative="1" as="geometry" />
        </mxCell>
        <mxCell id="R6BKgWY7cvKUN3QxwYgu-24" value="&lt;b&gt;output&lt;/b&gt;&lt;div&gt;&lt;u&gt;required&lt;/u&gt;: budget sequence,&lt;/div&gt;&lt;div&gt;budget start and end dates;&lt;/div&gt;&lt;div&gt;&lt;i&gt;budget active of 1&lt;/i&gt;&lt;/div&gt;&lt;div&gt;&lt;br&gt;&lt;/div&gt;&lt;div&gt;&lt;u&gt;optional&lt;/u&gt;: budget&lt;/div&gt;&lt;div&gt;description&lt;/div&gt;" style="shape=parallelogram;html=1;strokeWidth=2;perimeter=parallelogramPerimeter;whiteSpace=wrap;rounded=1;arcSize=12;size=0.23;" vertex="1" parent="R6BKgWY7cvKUN3QxwYgu-47">
          <mxGeometry x="35" y="570" width="250" height="100" as="geometry" />
        </mxCell>
        <mxCell id="R6BKgWY7cvKUN3QxwYgu-28" value="refresh budget page" style="strokeWidth=2;html=1;shape=mxgraph.flowchart.terminator;whiteSpace=wrap;" vertex="1" parent="R6BKgWY7cvKUN3QxwYgu-47">
          <mxGeometry x="362.5" y="710" width="165" height="60" as="geometry" />
        </mxCell>
        <mxCell id="R6BKgWY7cvKUN3QxwYgu-29" style="edgeStyle=orthogonalEdgeStyle;rounded=0;orthogonalLoop=1;jettySize=auto;html=1;entryX=0.5;entryY=0;entryDx=0;entryDy=0;entryPerimeter=0;" edge="1" parent="R6BKgWY7cvKUN3QxwYgu-47" source="R6BKgWY7cvKUN3QxwYgu-13" target="R6BKgWY7cvKUN3QxwYgu-28">
          <mxGeometry relative="1" as="geometry" />
        </mxCell>
        <mxCell id="R6BKgWY7cvKUN3QxwYgu-46" value="&lt;h1 style=&quot;margin-top: 0px;&quot;&gt;add budget process&lt;/h1&gt;" style="text;html=1;whiteSpace=wrap;overflow=hidden;rounded=0;container=0;" vertex="1" parent="R6BKgWY7cvKUN3QxwYgu-47">
          <mxGeometry x="260" y="320" width="240" height="40" as="geometry" />
        </mxCell>
        <mxCell id="R6BKgWY7cvKUN3QxwYgu-79" value="" style="group" connectable="0" vertex="1" parent="1">
          <mxGeometry x="1490" y="800" width="530" height="760" as="geometry" />
        </mxCell>
        <mxCell id="R6BKgWY7cvKUN3QxwYgu-50" style="edgeStyle=orthogonalEdgeStyle;rounded=0;orthogonalLoop=1;jettySize=auto;html=1;exitX=0.5;exitY=1;exitDx=0;exitDy=0;exitPerimeter=0;entryX=0.5;entryY=0;entryDx=0;entryDy=0;" edge="1" parent="R6BKgWY7cvKUN3QxwYgu-79" source="R6BKgWY7cvKUN3QxwYgu-48" target="R6BKgWY7cvKUN3QxwYgu-49">
          <mxGeometry relative="1" as="geometry" />
        </mxCell>
        <mxCell id="R6BKgWY7cvKUN3QxwYgu-48" value="update budget" style="strokeWidth=2;html=1;shape=mxgraph.flowchart.terminator;whiteSpace=wrap;" vertex="1" parent="R6BKgWY7cvKUN3QxwYgu-79">
          <mxGeometry x="265" width="140" height="60" as="geometry" />
        </mxCell>
        <mxCell id="R6BKgWY7cvKUN3QxwYgu-49" value="&lt;b&gt;possible data to change:&lt;/b&gt;&lt;div&gt;budget amount, description,&lt;/div&gt;&lt;div&gt;start, and end dates&lt;/div&gt;" style="shape=parallelogram;html=1;strokeWidth=2;perimeter=parallelogramPerimeter;whiteSpace=wrap;rounded=1;arcSize=12;size=0.23;" vertex="1" parent="R6BKgWY7cvKUN3QxwYgu-79">
          <mxGeometry x="210" y="80" width="250" height="90" as="geometry" />
        </mxCell>
        <mxCell id="R6BKgWY7cvKUN3QxwYgu-51" value="are start or end dates&lt;div&gt;modified?&lt;/div&gt;" style="strokeWidth=2;html=1;shape=mxgraph.flowchart.decision;whiteSpace=wrap;" vertex="1" parent="R6BKgWY7cvKUN3QxwYgu-79">
          <mxGeometry x="240" y="210" width="190" height="150" as="geometry" />
        </mxCell>
        <mxCell id="R6BKgWY7cvKUN3QxwYgu-52" style="edgeStyle=orthogonalEdgeStyle;rounded=0;orthogonalLoop=1;jettySize=auto;html=1;entryX=0.5;entryY=0;entryDx=0;entryDy=0;entryPerimeter=0;" edge="1" parent="R6BKgWY7cvKUN3QxwYgu-79" source="R6BKgWY7cvKUN3QxwYgu-49" target="R6BKgWY7cvKUN3QxwYgu-51">
          <mxGeometry relative="1" as="geometry" />
        </mxCell>
        <mxCell id="R6BKgWY7cvKUN3QxwYgu-53" value="A" style="strokeWidth=2;html=1;shape=mxgraph.flowchart.start_2;whiteSpace=wrap;" vertex="1" parent="R6BKgWY7cvKUN3QxwYgu-79">
          <mxGeometry x="500" y="270" width="30" height="30" as="geometry" />
        </mxCell>
        <mxCell id="R6BKgWY7cvKUN3QxwYgu-54" style="edgeStyle=orthogonalEdgeStyle;rounded=0;orthogonalLoop=1;jettySize=auto;html=1;entryX=0;entryY=0.5;entryDx=0;entryDy=0;entryPerimeter=0;" edge="1" parent="R6BKgWY7cvKUN3QxwYgu-79" source="R6BKgWY7cvKUN3QxwYgu-51" target="R6BKgWY7cvKUN3QxwYgu-53">
          <mxGeometry relative="1" as="geometry" />
        </mxCell>
        <mxCell id="R6BKgWY7cvKUN3QxwYgu-55" value="no" style="edgeLabel;html=1;align=center;verticalAlign=middle;resizable=0;points=[];" connectable="0" vertex="1" parent="R6BKgWY7cvKUN3QxwYgu-54">
          <mxGeometry x="0.1068" y="-2" relative="1" as="geometry">
            <mxPoint as="offset" />
          </mxGeometry>
        </mxCell>
        <mxCell id="R6BKgWY7cvKUN3QxwYgu-60" value="yes" style="edgeStyle=orthogonalEdgeStyle;rounded=0;orthogonalLoop=1;jettySize=auto;html=1;entryX=0.5;entryY=1;entryDx=0;entryDy=0;" edge="1" parent="R6BKgWY7cvKUN3QxwYgu-79" source="R6BKgWY7cvKUN3QxwYgu-56" target="R6BKgWY7cvKUN3QxwYgu-59">
          <mxGeometry relative="1" as="geometry" />
        </mxCell>
        <mxCell id="R6BKgWY7cvKUN3QxwYgu-56" value="does the modified date&lt;div&gt;overlap with any&amp;nbsp;&lt;/div&gt;&lt;div&gt;other dates?&lt;/div&gt;" style="strokeWidth=2;html=1;shape=mxgraph.flowchart.decision;whiteSpace=wrap;" vertex="1" parent="R6BKgWY7cvKUN3QxwYgu-79">
          <mxGeometry y="221.25" width="190" height="127.5" as="geometry" />
        </mxCell>
        <mxCell id="R6BKgWY7cvKUN3QxwYgu-57" value="yes" style="edgeStyle=orthogonalEdgeStyle;rounded=0;orthogonalLoop=1;jettySize=auto;html=1;entryX=1;entryY=0.5;entryDx=0;entryDy=0;entryPerimeter=0;" edge="1" parent="R6BKgWY7cvKUN3QxwYgu-79" source="R6BKgWY7cvKUN3QxwYgu-51" target="R6BKgWY7cvKUN3QxwYgu-56">
          <mxGeometry relative="1" as="geometry" />
        </mxCell>
        <mxCell id="R6BKgWY7cvKUN3QxwYgu-59" value="inform user about the error" style="rounded=1;whiteSpace=wrap;html=1;absoluteArcSize=1;arcSize=14;strokeWidth=2;" vertex="1" parent="R6BKgWY7cvKUN3QxwYgu-79">
          <mxGeometry x="13.75" y="130" width="162.5" height="40" as="geometry" />
        </mxCell>
        <mxCell id="R6BKgWY7cvKUN3QxwYgu-61" style="edgeStyle=orthogonalEdgeStyle;rounded=0;orthogonalLoop=1;jettySize=auto;html=1;entryX=0;entryY=0.5;entryDx=0;entryDy=0;entryPerimeter=0;" edge="1" parent="R6BKgWY7cvKUN3QxwYgu-79" source="R6BKgWY7cvKUN3QxwYgu-59" target="R6BKgWY7cvKUN3QxwYgu-48">
          <mxGeometry relative="1" as="geometry">
            <Array as="points">
              <mxPoint x="95" y="30" />
            </Array>
          </mxGeometry>
        </mxCell>
        <mxCell id="R6BKgWY7cvKUN3QxwYgu-66" value="no" style="edgeStyle=orthogonalEdgeStyle;rounded=0;orthogonalLoop=1;jettySize=auto;html=1;" edge="1" parent="R6BKgWY7cvKUN3QxwYgu-79" source="R6BKgWY7cvKUN3QxwYgu-62" target="R6BKgWY7cvKUN3QxwYgu-65">
          <mxGeometry relative="1" as="geometry" />
        </mxCell>
        <mxCell id="R6BKgWY7cvKUN3QxwYgu-68" value="yes" style="edgeStyle=orthogonalEdgeStyle;rounded=0;orthogonalLoop=1;jettySize=auto;html=1;entryX=0.5;entryY=0;entryDx=0;entryDy=0;" edge="1" parent="R6BKgWY7cvKUN3QxwYgu-79" source="R6BKgWY7cvKUN3QxwYgu-62" target="R6BKgWY7cvKUN3QxwYgu-67">
          <mxGeometry relative="1" as="geometry" />
        </mxCell>
        <mxCell id="R6BKgWY7cvKUN3QxwYgu-62" value="is today between the start&lt;div&gt;and end dates&lt;/div&gt;" style="strokeWidth=2;html=1;shape=mxgraph.flowchart.decision;whiteSpace=wrap;" vertex="1" parent="R6BKgWY7cvKUN3QxwYgu-79">
          <mxGeometry x="5" y="400" width="180" height="150" as="geometry" />
        </mxCell>
        <mxCell id="R6BKgWY7cvKUN3QxwYgu-63" style="edgeStyle=orthogonalEdgeStyle;rounded=0;orthogonalLoop=1;jettySize=auto;html=1;entryX=0.5;entryY=0;entryDx=0;entryDy=0;entryPerimeter=0;" edge="1" parent="R6BKgWY7cvKUN3QxwYgu-79" source="R6BKgWY7cvKUN3QxwYgu-56" target="R6BKgWY7cvKUN3QxwYgu-62">
          <mxGeometry relative="1" as="geometry" />
        </mxCell>
        <mxCell id="R6BKgWY7cvKUN3QxwYgu-64" value="no" style="edgeLabel;html=1;align=center;verticalAlign=middle;resizable=0;points=[];" connectable="0" vertex="1" parent="R6BKgWY7cvKUN3QxwYgu-63">
          <mxGeometry x="-0.3311" y="-5" relative="1" as="geometry">
            <mxPoint x="5" y="4" as="offset" />
          </mxGeometry>
        </mxCell>
        <mxCell id="R6BKgWY7cvKUN3QxwYgu-70" style="edgeStyle=orthogonalEdgeStyle;rounded=0;orthogonalLoop=1;jettySize=auto;html=1;entryX=0.5;entryY=0;entryDx=0;entryDy=0;" edge="1" parent="R6BKgWY7cvKUN3QxwYgu-79" source="R6BKgWY7cvKUN3QxwYgu-65" target="R6BKgWY7cvKUN3QxwYgu-69">
          <mxGeometry relative="1" as="geometry" />
        </mxCell>
        <mxCell id="R6BKgWY7cvKUN3QxwYgu-65" value="&lt;b&gt;output&lt;/b&gt;&lt;div&gt;budget start and/or&lt;/div&gt;&lt;div&gt;end dates;&lt;/div&gt;&lt;div&gt;&lt;i&gt;budget active of 0&lt;/i&gt;&lt;/div&gt;" style="shape=parallelogram;html=1;strokeWidth=2;perimeter=parallelogramPerimeter;whiteSpace=wrap;rounded=1;arcSize=12;size=0.23;" vertex="1" parent="R6BKgWY7cvKUN3QxwYgu-79">
          <mxGeometry x="240" y="440" width="190" height="70" as="geometry" />
        </mxCell>
        <mxCell id="R6BKgWY7cvKUN3QxwYgu-74" style="edgeStyle=orthogonalEdgeStyle;rounded=0;orthogonalLoop=1;jettySize=auto;html=1;entryX=0;entryY=0.5;entryDx=0;entryDy=0;" edge="1" parent="R6BKgWY7cvKUN3QxwYgu-79" source="R6BKgWY7cvKUN3QxwYgu-67" target="R6BKgWY7cvKUN3QxwYgu-69">
          <mxGeometry relative="1" as="geometry" />
        </mxCell>
        <mxCell id="R6BKgWY7cvKUN3QxwYgu-67" value="&lt;b&gt;output&lt;/b&gt;&lt;div&gt;budget start and/or&lt;/div&gt;&lt;div&gt;end dates;&lt;/div&gt;&lt;div&gt;&lt;i&gt;budget active of 1&lt;/i&gt;&lt;/div&gt;" style="shape=parallelogram;html=1;strokeWidth=2;perimeter=parallelogramPerimeter;whiteSpace=wrap;rounded=1;arcSize=12;size=0.23;" vertex="1" parent="R6BKgWY7cvKUN3QxwYgu-79">
          <mxGeometry y="600" width="190" height="70" as="geometry" />
        </mxCell>
        <mxCell id="R6BKgWY7cvKUN3QxwYgu-69" value="update budget&amp;nbsp;&lt;div&gt;in the database&lt;/div&gt;" style="rounded=1;whiteSpace=wrap;html=1;absoluteArcSize=1;arcSize=14;strokeWidth=2;" vertex="1" parent="R6BKgWY7cvKUN3QxwYgu-79">
          <mxGeometry x="270" y="605" width="130" height="60" as="geometry" />
        </mxCell>
        <mxCell id="R6BKgWY7cvKUN3QxwYgu-73" style="edgeStyle=orthogonalEdgeStyle;rounded=0;orthogonalLoop=1;jettySize=auto;html=1;entryX=1;entryY=0.5;entryDx=0;entryDy=0;" edge="1" parent="R6BKgWY7cvKUN3QxwYgu-79" source="R6BKgWY7cvKUN3QxwYgu-72" target="R6BKgWY7cvKUN3QxwYgu-69">
          <mxGeometry relative="1" as="geometry" />
        </mxCell>
        <mxCell id="R6BKgWY7cvKUN3QxwYgu-72" value="A" style="strokeWidth=2;html=1;shape=mxgraph.flowchart.start_2;whiteSpace=wrap;" vertex="1" parent="R6BKgWY7cvKUN3QxwYgu-79">
          <mxGeometry x="460" y="620" width="30" height="30" as="geometry" />
        </mxCell>
        <mxCell id="R6BKgWY7cvKUN3QxwYgu-75" value="refresh budget page" style="strokeWidth=2;html=1;shape=mxgraph.flowchart.terminator;whiteSpace=wrap;" vertex="1" parent="R6BKgWY7cvKUN3QxwYgu-79">
          <mxGeometry x="266.25" y="720" width="137.5" height="40" as="geometry" />
        </mxCell>
        <mxCell id="R6BKgWY7cvKUN3QxwYgu-76" style="edgeStyle=orthogonalEdgeStyle;rounded=0;orthogonalLoop=1;jettySize=auto;html=1;entryX=0.5;entryY=0;entryDx=0;entryDy=0;entryPerimeter=0;" edge="1" parent="R6BKgWY7cvKUN3QxwYgu-79" source="R6BKgWY7cvKUN3QxwYgu-69" target="R6BKgWY7cvKUN3QxwYgu-75">
          <mxGeometry relative="1" as="geometry" />
        </mxCell>
        <mxCell id="R6BKgWY7cvKUN3QxwYgu-78" value="&lt;h1 style=&quot;margin-top: 0px;&quot;&gt;update budget process&lt;/h1&gt;" style="text;html=1;whiteSpace=wrap;overflow=hidden;rounded=0;container=0;" vertex="1" parent="R6BKgWY7cvKUN3QxwYgu-79">
          <mxGeometry x="176.25" y="380" width="290" height="40" as="geometry" />
        </mxCell>
        <mxCell id="R6BKgWY7cvKUN3QxwYgu-87" value="&lt;b&gt;Note&lt;/b&gt;: Must verify token and ensure that&amp;nbsp;&lt;span style=&quot;background-color: initial;&quot;&gt;the user&#39;s account number is the same as&amp;nbsp;&lt;/span&gt;&lt;span style=&quot;background-color: initial;&quot;&gt;the input&amp;nbsp;&lt;/span&gt;&lt;span style=&quot;background-color: initial;&quot;&gt;in the parameter of the API in&amp;nbsp;&lt;/span&gt;&lt;span style=&quot;background-color: initial;&quot;&gt;the following scenarios&lt;/span&gt;&lt;div&gt;&lt;span style=&quot;background-color: initial;&quot;&gt;&amp;nbsp;&amp;nbsp;&lt;/span&gt;&lt;/div&gt;&lt;div&gt;&lt;u&gt;Add&lt;/u&gt;: budget, expense&lt;/div&gt;&lt;div&gt;&lt;u&gt;Update and Delete&lt;/u&gt;: user, budget, expense, setting,&lt;/div&gt;" style="rounded=1;whiteSpace=wrap;html=1;absoluteArcSize=1;arcSize=14;strokeWidth=2;spacingLeft=10;spacingRight=10;" vertex="1" parent="1">
          <mxGeometry x="10" y="260" width="200" height="200" as="geometry" />
        </mxCell>
        <mxCell id="R6BKgWY7cvKUN3QxwYgu-103" value="" style="group" connectable="0" vertex="1" parent="1">
          <mxGeometry x="2120" y="800" width="160" height="380" as="geometry" />
        </mxCell>
        <mxCell id="R6BKgWY7cvKUN3QxwYgu-99" style="edgeStyle=orthogonalEdgeStyle;rounded=0;orthogonalLoop=1;jettySize=auto;html=1;entryX=0.5;entryY=0;entryDx=0;entryDy=0;" edge="1" parent="R6BKgWY7cvKUN3QxwYgu-103" source="R6BKgWY7cvKUN3QxwYgu-96" target="R6BKgWY7cvKUN3QxwYgu-98">
          <mxGeometry relative="1" as="geometry" />
        </mxCell>
        <mxCell id="R6BKgWY7cvKUN3QxwYgu-96" value="delete budget" style="strokeWidth=2;html=1;shape=mxgraph.flowchart.terminator;whiteSpace=wrap;container=0;" vertex="1" parent="R6BKgWY7cvKUN3QxwYgu-103">
          <mxGeometry x="5" y="80" width="150" height="60" as="geometry" />
        </mxCell>
        <mxCell id="R6BKgWY7cvKUN3QxwYgu-98" value="delete budget instance row&lt;div&gt;in the database&lt;/div&gt;" style="rounded=1;whiteSpace=wrap;html=1;absoluteArcSize=1;arcSize=14;strokeWidth=2;" vertex="1" parent="R6BKgWY7cvKUN3QxwYgu-103">
          <mxGeometry y="195" width="160" height="70" as="geometry" />
        </mxCell>
        <mxCell id="R6BKgWY7cvKUN3QxwYgu-100" value="redirect to budget page" style="strokeWidth=2;html=1;shape=mxgraph.flowchart.terminator;whiteSpace=wrap;" vertex="1" parent="R6BKgWY7cvKUN3QxwYgu-103">
          <mxGeometry y="320" width="160" height="60" as="geometry" />
        </mxCell>
        <mxCell id="R6BKgWY7cvKUN3QxwYgu-101" style="edgeStyle=orthogonalEdgeStyle;rounded=0;orthogonalLoop=1;jettySize=auto;html=1;entryX=0.5;entryY=0;entryDx=0;entryDy=0;entryPerimeter=0;" edge="1" parent="R6BKgWY7cvKUN3QxwYgu-103" source="R6BKgWY7cvKUN3QxwYgu-98" target="R6BKgWY7cvKUN3QxwYgu-100">
          <mxGeometry relative="1" as="geometry" />
        </mxCell>
        <mxCell id="R6BKgWY7cvKUN3QxwYgu-102" value="&lt;h1 style=&quot;margin-top: 0px;&quot;&gt;delete budget process&lt;/h1&gt;" style="text;html=1;whiteSpace=wrap;overflow=hidden;rounded=0;container=0;" vertex="1" parent="R6BKgWY7cvKUN3QxwYgu-103">
          <mxGeometry width="160" height="70" as="geometry" />
        </mxCell>
        <mxCell id="R6BKgWY7cvKUN3QxwYgu-173" value="" style="group" connectable="0" vertex="1" parent="1">
          <mxGeometry x="1510" y="1680" width="572.5" height="510" as="geometry" />
        </mxCell>
        <mxCell id="R6BKgWY7cvKUN3QxwYgu-174" value="" style="edgeStyle=orthogonalEdgeStyle;rounded=0;orthogonalLoop=1;jettySize=auto;html=1;" edge="1" parent="R6BKgWY7cvKUN3QxwYgu-173" source="R6BKgWY7cvKUN3QxwYgu-175" target="R6BKgWY7cvKUN3QxwYgu-177">
          <mxGeometry relative="1" as="geometry" />
        </mxCell>
        <mxCell id="R6BKgWY7cvKUN3QxwYgu-175" value="update expense" style="strokeWidth=2;html=1;shape=mxgraph.flowchart.terminator;whiteSpace=wrap;container=0;" vertex="1" parent="R6BKgWY7cvKUN3QxwYgu-173">
          <mxGeometry x="162.5" width="150" height="60" as="geometry" />
        </mxCell>
        <mxCell id="R6BKgWY7cvKUN3QxwYgu-176" style="edgeStyle=orthogonalEdgeStyle;rounded=0;orthogonalLoop=1;jettySize=auto;html=1;entryX=0.5;entryY=0;entryDx=0;entryDy=0;" edge="1" parent="R6BKgWY7cvKUN3QxwYgu-173" source="R6BKgWY7cvKUN3QxwYgu-177" target="R6BKgWY7cvKUN3QxwYgu-178">
          <mxGeometry relative="1" as="geometry" />
        </mxCell>
        <mxCell id="R6BKgWY7cvKUN3QxwYgu-177" value="&lt;b&gt;possible data to change:&lt;/b&gt;&lt;div&gt;expense amount,&amp;nbsp;&lt;div&gt;date, category, and&lt;span style=&quot;background-color: initial;&quot;&gt;&amp;nbsp;description&lt;/span&gt;&lt;/div&gt;&lt;/div&gt;" style="shape=parallelogram;html=1;strokeWidth=2;perimeter=parallelogramPerimeter;whiteSpace=wrap;rounded=1;arcSize=12;size=0.23;container=0;spacingLeft=20;spacingRight=20;" vertex="1" parent="R6BKgWY7cvKUN3QxwYgu-173">
          <mxGeometry x="102.5" y="110" width="270" height="80" as="geometry" />
        </mxCell>
        <mxCell id="R6BKgWY7cvKUN3QxwYgu-178" value="update expense in the database" style="rounded=1;whiteSpace=wrap;html=1;absoluteArcSize=1;arcSize=14;strokeWidth=2;container=0;" vertex="1" parent="R6BKgWY7cvKUN3QxwYgu-173">
          <mxGeometry x="137.5" y="260" width="200" height="60" as="geometry" />
        </mxCell>
        <mxCell id="R6BKgWY7cvKUN3QxwYgu-179" value="yes" style="edgeStyle=orthogonalEdgeStyle;rounded=0;orthogonalLoop=1;jettySize=auto;html=1;entryX=0.5;entryY=1;entryDx=0;entryDy=0;" edge="1" parent="R6BKgWY7cvKUN3QxwYgu-173" source="R6BKgWY7cvKUN3QxwYgu-181" target="R6BKgWY7cvKUN3QxwYgu-184">
          <mxGeometry relative="1" as="geometry" />
        </mxCell>
        <mxCell id="R6BKgWY7cvKUN3QxwYgu-180" value="no" style="edgeStyle=orthogonalEdgeStyle;rounded=0;orthogonalLoop=1;jettySize=auto;html=1;entryX=0.5;entryY=0;entryDx=0;entryDy=0;exitX=0;exitY=0.5;exitDx=0;exitDy=0;exitPerimeter=0;entryPerimeter=0;" edge="1" parent="R6BKgWY7cvKUN3QxwYgu-173" source="R6BKgWY7cvKUN3QxwYgu-181" target="R6BKgWY7cvKUN3QxwYgu-185">
          <mxGeometry relative="1" as="geometry">
            <mxPoint x="97.50000000000023" y="480" as="targetPoint" />
          </mxGeometry>
        </mxCell>
        <mxCell id="R6BKgWY7cvKUN3QxwYgu-181" value="constraints violated?" style="strokeWidth=2;html=1;shape=mxgraph.flowchart.decision;whiteSpace=wrap;container=0;" vertex="1" parent="R6BKgWY7cvKUN3QxwYgu-173">
          <mxGeometry x="165" y="360" width="145" height="100" as="geometry" />
        </mxCell>
        <mxCell id="R6BKgWY7cvKUN3QxwYgu-182" style="edgeStyle=orthogonalEdgeStyle;rounded=0;orthogonalLoop=1;jettySize=auto;html=1;entryX=0.5;entryY=0;entryDx=0;entryDy=0;entryPerimeter=0;" edge="1" parent="R6BKgWY7cvKUN3QxwYgu-173" source="R6BKgWY7cvKUN3QxwYgu-178" target="R6BKgWY7cvKUN3QxwYgu-181">
          <mxGeometry relative="1" as="geometry" />
        </mxCell>
        <mxCell id="R6BKgWY7cvKUN3QxwYgu-183" style="edgeStyle=orthogonalEdgeStyle;rounded=0;orthogonalLoop=1;jettySize=auto;html=1;entryX=0.5;entryY=1;entryDx=0;entryDy=0;" edge="1" parent="R6BKgWY7cvKUN3QxwYgu-173" source="R6BKgWY7cvKUN3QxwYgu-184" target="R6BKgWY7cvKUN3QxwYgu-187">
          <mxGeometry relative="1" as="geometry" />
        </mxCell>
        <mxCell id="R6BKgWY7cvKUN3QxwYgu-184" value="rollback" style="rounded=1;whiteSpace=wrap;html=1;absoluteArcSize=1;arcSize=14;strokeWidth=2;container=0;" vertex="1" parent="R6BKgWY7cvKUN3QxwYgu-173">
          <mxGeometry x="382.5" y="260" width="190" height="60" as="geometry" />
        </mxCell>
        <mxCell id="R6BKgWY7cvKUN3QxwYgu-185" value="refresh expense page" style="strokeWidth=2;html=1;shape=mxgraph.flowchart.terminator;whiteSpace=wrap;container=0;" vertex="1" parent="R6BKgWY7cvKUN3QxwYgu-173">
          <mxGeometry y="440" width="165" height="60" as="geometry" />
        </mxCell>
        <mxCell id="R6BKgWY7cvKUN3QxwYgu-186" value="&lt;h1 style=&quot;margin-top: 0px;&quot;&gt;update expense process&lt;/h1&gt;" style="text;html=1;whiteSpace=wrap;overflow=hidden;rounded=0;container=0;" vertex="1" parent="R6BKgWY7cvKUN3QxwYgu-173">
          <mxGeometry x="172.5" y="460" width="300" height="50" as="geometry" />
        </mxCell>
        <mxCell id="R6BKgWY7cvKUN3QxwYgu-187" value="inform user the error" style="rounded=1;whiteSpace=wrap;html=1;absoluteArcSize=1;arcSize=14;strokeWidth=2;container=0;" vertex="1" parent="R6BKgWY7cvKUN3QxwYgu-173">
          <mxGeometry x="382.5" y="130" width="190" height="60" as="geometry" />
        </mxCell>
        <mxCell id="R6BKgWY7cvKUN3QxwYgu-188" style="edgeStyle=orthogonalEdgeStyle;rounded=0;orthogonalLoop=1;jettySize=auto;html=1;entryX=1;entryY=0.5;entryDx=0;entryDy=0;entryPerimeter=0;exitX=0.5;exitY=0;exitDx=0;exitDy=0;" edge="1" parent="R6BKgWY7cvKUN3QxwYgu-173" source="R6BKgWY7cvKUN3QxwYgu-187" target="R6BKgWY7cvKUN3QxwYgu-175">
          <mxGeometry relative="1" as="geometry">
            <Array as="points">
              <mxPoint x="478" y="30" />
            </Array>
          </mxGeometry>
        </mxCell>
        <mxCell id="R6BKgWY7cvKUN3QxwYgu-209" value="" style="group" connectable="0" vertex="1" parent="1">
          <mxGeometry x="870" y="1610" width="620" height="585" as="geometry" />
        </mxCell>
        <mxCell id="R6BKgWY7cvKUN3QxwYgu-210" value="" style="edgeStyle=orthogonalEdgeStyle;rounded=0;orthogonalLoop=1;jettySize=auto;html=1;" edge="1" parent="R6BKgWY7cvKUN3QxwYgu-209" source="R6BKgWY7cvKUN3QxwYgu-211" target="R6BKgWY7cvKUN3QxwYgu-213">
          <mxGeometry relative="1" as="geometry" />
        </mxCell>
        <mxCell id="R6BKgWY7cvKUN3QxwYgu-211" value="add expense" style="strokeWidth=2;html=1;shape=mxgraph.flowchart.terminator;whiteSpace=wrap;container=0;" vertex="1" parent="R6BKgWY7cvKUN3QxwYgu-209">
          <mxGeometry x="210" width="150" height="60" as="geometry" />
        </mxCell>
        <mxCell id="R6BKgWY7cvKUN3QxwYgu-212" style="edgeStyle=orthogonalEdgeStyle;rounded=0;orthogonalLoop=1;jettySize=auto;html=1;entryX=0.5;entryY=0;entryDx=0;entryDy=0;" edge="1" parent="R6BKgWY7cvKUN3QxwYgu-209" source="R6BKgWY7cvKUN3QxwYgu-213" target="R6BKgWY7cvKUN3QxwYgu-214">
          <mxGeometry relative="1" as="geometry" />
        </mxCell>
        <mxCell id="R6BKgWY7cvKUN3QxwYgu-213" value="&lt;b&gt;required&lt;/b&gt;: expense amount,&amp;nbsp;&lt;div&gt;date and category&lt;div&gt;&lt;br&gt;&lt;/div&gt;&lt;div&gt;&lt;b&gt;optional&lt;/b&gt;: expense description&lt;/div&gt;&lt;/div&gt;" style="shape=parallelogram;html=1;strokeWidth=2;perimeter=parallelogramPerimeter;whiteSpace=wrap;rounded=1;arcSize=12;size=0.23;container=0;spacingLeft=20;spacingRight=20;" vertex="1" parent="R6BKgWY7cvKUN3QxwYgu-209">
          <mxGeometry x="150" y="110" width="270" height="105" as="geometry" />
        </mxCell>
        <mxCell id="R6BKgWY7cvKUN3QxwYgu-214" value="insert expense information in the database" style="rounded=1;whiteSpace=wrap;html=1;absoluteArcSize=1;arcSize=14;strokeWidth=2;" vertex="1" parent="R6BKgWY7cvKUN3QxwYgu-209">
          <mxGeometry x="185" y="260" width="200" height="60" as="geometry" />
        </mxCell>
        <mxCell id="R6BKgWY7cvKUN3QxwYgu-215" value="yes" style="edgeStyle=orthogonalEdgeStyle;rounded=0;orthogonalLoop=1;jettySize=auto;html=1;entryX=0.5;entryY=1;entryDx=0;entryDy=0;" edge="1" parent="R6BKgWY7cvKUN3QxwYgu-209" source="R6BKgWY7cvKUN3QxwYgu-217" target="R6BKgWY7cvKUN3QxwYgu-220">
          <mxGeometry relative="1" as="geometry" />
        </mxCell>
        <mxCell id="R6BKgWY7cvKUN3QxwYgu-216" value="no" style="edgeStyle=orthogonalEdgeStyle;rounded=0;orthogonalLoop=1;jettySize=auto;html=1;entryX=0.5;entryY=0;entryDx=0;entryDy=0;exitX=0;exitY=0.5;exitDx=0;exitDy=0;exitPerimeter=0;" edge="1" parent="R6BKgWY7cvKUN3QxwYgu-209" source="R6BKgWY7cvKUN3QxwYgu-217" target="R6BKgWY7cvKUN3QxwYgu-221">
          <mxGeometry relative="1" as="geometry" />
        </mxCell>
        <mxCell id="R6BKgWY7cvKUN3QxwYgu-217" value="constraints violated?" style="strokeWidth=2;html=1;shape=mxgraph.flowchart.decision;whiteSpace=wrap;" vertex="1" parent="R6BKgWY7cvKUN3QxwYgu-209">
          <mxGeometry x="212.5" y="360" width="145" height="100" as="geometry" />
        </mxCell>
        <mxCell id="R6BKgWY7cvKUN3QxwYgu-218" style="edgeStyle=orthogonalEdgeStyle;rounded=0;orthogonalLoop=1;jettySize=auto;html=1;entryX=0.5;entryY=0;entryDx=0;entryDy=0;entryPerimeter=0;" edge="1" parent="R6BKgWY7cvKUN3QxwYgu-209" source="R6BKgWY7cvKUN3QxwYgu-214" target="R6BKgWY7cvKUN3QxwYgu-217">
          <mxGeometry relative="1" as="geometry" />
        </mxCell>
        <mxCell id="R6BKgWY7cvKUN3QxwYgu-219" style="edgeStyle=orthogonalEdgeStyle;rounded=0;orthogonalLoop=1;jettySize=auto;html=1;entryX=0.5;entryY=1;entryDx=0;entryDy=0;" edge="1" parent="R6BKgWY7cvKUN3QxwYgu-209" source="R6BKgWY7cvKUN3QxwYgu-220" target="R6BKgWY7cvKUN3QxwYgu-225">
          <mxGeometry relative="1" as="geometry" />
        </mxCell>
        <mxCell id="R6BKgWY7cvKUN3QxwYgu-220" value="rollback" style="rounded=1;whiteSpace=wrap;html=1;absoluteArcSize=1;arcSize=14;strokeWidth=2;" vertex="1" parent="R6BKgWY7cvKUN3QxwYgu-209">
          <mxGeometry x="430" y="260" width="190" height="60" as="geometry" />
        </mxCell>
        <mxCell id="R6BKgWY7cvKUN3QxwYgu-221" value="&lt;div&gt;&lt;b&gt;to database&lt;/b&gt;:&lt;/div&gt;&lt;div&gt;&lt;u&gt;required&lt;/u&gt;: expense sequences,&lt;/div&gt;&lt;div&gt;amount, date, category,&lt;/div&gt;&lt;div&gt;&lt;i&gt;expense active of 1&lt;/i&gt;&lt;/div&gt;&lt;div&gt;&lt;i&gt;&lt;br&gt;&lt;/i&gt;&lt;/div&gt;&lt;div&gt;&lt;i&gt;&lt;u&gt;optional&lt;/u&gt;: expense description&lt;/i&gt;&lt;/div&gt;" style="shape=parallelogram;html=1;strokeWidth=2;perimeter=parallelogramPerimeter;whiteSpace=wrap;rounded=1;arcSize=12;size=0.23;container=0;spacingLeft=20;spacingRight=20;" vertex="1" parent="R6BKgWY7cvKUN3QxwYgu-209">
          <mxGeometry y="480" width="290" height="105" as="geometry" />
        </mxCell>
        <mxCell id="R6BKgWY7cvKUN3QxwYgu-222" value="refresh expense page" style="strokeWidth=2;html=1;shape=mxgraph.flowchart.terminator;whiteSpace=wrap;" vertex="1" parent="R6BKgWY7cvKUN3QxwYgu-209">
          <mxGeometry x="330" y="502.5" width="165" height="60" as="geometry" />
        </mxCell>
        <mxCell id="R6BKgWY7cvKUN3QxwYgu-223" style="edgeStyle=orthogonalEdgeStyle;rounded=0;orthogonalLoop=1;jettySize=auto;html=1;entryX=0;entryY=0.5;entryDx=0;entryDy=0;entryPerimeter=0;" edge="1" parent="R6BKgWY7cvKUN3QxwYgu-209" source="R6BKgWY7cvKUN3QxwYgu-221" target="R6BKgWY7cvKUN3QxwYgu-222">
          <mxGeometry relative="1" as="geometry" />
        </mxCell>
        <mxCell id="R6BKgWY7cvKUN3QxwYgu-224" value="&lt;h1 style=&quot;margin-top: 0px;&quot;&gt;add expense process&lt;/h1&gt;" style="text;html=1;whiteSpace=wrap;overflow=hidden;rounded=0;container=0;" vertex="1" parent="R6BKgWY7cvKUN3QxwYgu-209">
          <mxGeometry x="310" y="440" width="250" height="50" as="geometry" />
        </mxCell>
        <mxCell id="R6BKgWY7cvKUN3QxwYgu-225" value="inform user the error" style="rounded=1;whiteSpace=wrap;html=1;absoluteArcSize=1;arcSize=14;strokeWidth=2;" vertex="1" parent="R6BKgWY7cvKUN3QxwYgu-209">
          <mxGeometry x="430" y="120" width="190" height="60" as="geometry" />
        </mxCell>
        <mxCell id="R6BKgWY7cvKUN3QxwYgu-226" style="edgeStyle=orthogonalEdgeStyle;rounded=0;orthogonalLoop=1;jettySize=auto;html=1;exitX=0.5;exitY=0;exitDx=0;exitDy=0;entryX=1;entryY=0.5;entryDx=0;entryDy=0;entryPerimeter=0;" edge="1" parent="R6BKgWY7cvKUN3QxwYgu-209" source="R6BKgWY7cvKUN3QxwYgu-225" target="R6BKgWY7cvKUN3QxwYgu-211">
          <mxGeometry relative="1" as="geometry" />
        </mxCell>
        <mxCell id="R6BKgWY7cvKUN3QxwYgu-230" value="" style="group" connectable="0" vertex="1" parent="1">
          <mxGeometry x="1319.99" y="10" width="526.01" height="750" as="geometry" />
        </mxCell>
        <mxCell id="X6pj7YaXZ-_5lvFSQrNL-109" style="edgeStyle=orthogonalEdgeStyle;rounded=0;orthogonalLoop=1;jettySize=auto;html=1;entryX=0.5;entryY=0;entryDx=0;entryDy=0;" edge="1" parent="R6BKgWY7cvKUN3QxwYgu-230" source="X6pj7YaXZ-_5lvFSQrNL-107" target="X6pj7YaXZ-_5lvFSQrNL-108">
          <mxGeometry relative="1" as="geometry" />
        </mxCell>
        <mxCell id="X6pj7YaXZ-_5lvFSQrNL-107" value="sign-up" style="strokeWidth=2;html=1;shape=mxgraph.flowchart.terminator;whiteSpace=wrap;container=0;" vertex="1" parent="R6BKgWY7cvKUN3QxwYgu-230">
          <mxGeometry x="76.25999999999999" width="150" height="60" as="geometry" />
        </mxCell>
        <mxCell id="X6pj7YaXZ-_5lvFSQrNL-111" style="edgeStyle=orthogonalEdgeStyle;rounded=0;orthogonalLoop=1;jettySize=auto;html=1;entryX=0.5;entryY=0;entryDx=0;entryDy=0;" edge="1" parent="R6BKgWY7cvKUN3QxwYgu-230" source="X6pj7YaXZ-_5lvFSQrNL-108" target="X6pj7YaXZ-_5lvFSQrNL-110">
          <mxGeometry relative="1" as="geometry" />
        </mxCell>
        <mxCell id="X6pj7YaXZ-_5lvFSQrNL-108" value="&lt;b&gt;required&lt;/b&gt;: username, user first and&lt;div&gt;last name, email, and password&lt;/div&gt;&lt;div&gt;&lt;br&gt;&lt;/div&gt;&lt;div&gt;&lt;b&gt;optional&lt;/b&gt;: user initial and phone&lt;/div&gt;" style="shape=parallelogram;html=1;strokeWidth=2;perimeter=parallelogramPerimeter;whiteSpace=wrap;rounded=1;arcSize=12;size=0.23;container=0;" vertex="1" parent="R6BKgWY7cvKUN3QxwYgu-230">
          <mxGeometry x="0.009999999999990905" y="120" width="302.5" height="140" as="geometry" />
        </mxCell>
        <mxCell id="X6pj7YaXZ-_5lvFSQrNL-110" value="insert sign-up information to the database" style="rounded=1;whiteSpace=wrap;html=1;absoluteArcSize=1;arcSize=14;strokeWidth=2;container=0;" vertex="1" parent="R6BKgWY7cvKUN3QxwYgu-230">
          <mxGeometry x="58.25999999999999" y="320" width="186" height="60" as="geometry" />
        </mxCell>
        <mxCell id="X6pj7YaXZ-_5lvFSQrNL-115" value="yes" style="edgeStyle=orthogonalEdgeStyle;rounded=0;orthogonalLoop=1;jettySize=auto;html=1;entryX=0.5;entryY=1;entryDx=0;entryDy=0;" edge="1" parent="R6BKgWY7cvKUN3QxwYgu-230" source="X6pj7YaXZ-_5lvFSQrNL-112" target="X6pj7YaXZ-_5lvFSQrNL-114">
          <mxGeometry x="-0.6727" relative="1" as="geometry">
            <mxPoint as="offset" />
          </mxGeometry>
        </mxCell>
        <mxCell id="1juzW6bf5Yi3JQukz339-9" style="edgeStyle=orthogonalEdgeStyle;rounded=0;orthogonalLoop=1;jettySize=auto;html=1;" edge="1" parent="R6BKgWY7cvKUN3QxwYgu-230" source="X6pj7YaXZ-_5lvFSQrNL-112" target="1juzW6bf5Yi3JQukz339-3">
          <mxGeometry relative="1" as="geometry" />
        </mxCell>
        <mxCell id="1juzW6bf5Yi3JQukz339-10" value="no" style="edgeLabel;html=1;align=center;verticalAlign=middle;resizable=0;points=[];container=0;" connectable="0" vertex="1" parent="1juzW6bf5Yi3JQukz339-9">
          <mxGeometry x="-0.5219" y="1" relative="1" as="geometry">
            <mxPoint x="-1" y="11" as="offset" />
          </mxGeometry>
        </mxCell>
        <mxCell id="X6pj7YaXZ-_5lvFSQrNL-112" value="any constraints&amp;nbsp;&lt;div&gt;violated?&lt;/div&gt;" style="strokeWidth=2;html=1;shape=mxgraph.flowchart.decision;whiteSpace=wrap;container=0;" vertex="1" parent="R6BKgWY7cvKUN3QxwYgu-230">
          <mxGeometry x="73.00999999999999" y="440" width="156.5" height="110" as="geometry" />
        </mxCell>
        <mxCell id="X6pj7YaXZ-_5lvFSQrNL-113" style="edgeStyle=orthogonalEdgeStyle;rounded=0;orthogonalLoop=1;jettySize=auto;html=1;entryX=0.5;entryY=0;entryDx=0;entryDy=0;entryPerimeter=0;" edge="1" parent="R6BKgWY7cvKUN3QxwYgu-230" source="X6pj7YaXZ-_5lvFSQrNL-110" target="X6pj7YaXZ-_5lvFSQrNL-112">
          <mxGeometry relative="1" as="geometry" />
        </mxCell>
        <mxCell id="R6BKgWY7cvKUN3QxwYgu-228" style="edgeStyle=orthogonalEdgeStyle;rounded=0;orthogonalLoop=1;jettySize=auto;html=1;entryX=0.5;entryY=1;entryDx=0;entryDy=0;" edge="1" parent="R6BKgWY7cvKUN3QxwYgu-230" source="X6pj7YaXZ-_5lvFSQrNL-114" target="R6BKgWY7cvKUN3QxwYgu-227">
          <mxGeometry relative="1" as="geometry" />
        </mxCell>
        <mxCell id="X6pj7YaXZ-_5lvFSQrNL-114" value="rollback" style="rounded=1;whiteSpace=wrap;html=1;absoluteArcSize=1;arcSize=14;strokeWidth=2;container=0;" vertex="1" parent="R6BKgWY7cvKUN3QxwYgu-230">
          <mxGeometry x="330.01" y="320" width="186" height="60" as="geometry" />
        </mxCell>
        <mxCell id="X6pj7YaXZ-_5lvFSQrNL-138" value="redirect user to login page" style="strokeWidth=2;html=1;shape=mxgraph.flowchart.terminator;whiteSpace=wrap;container=0;" vertex="1" parent="R6BKgWY7cvKUN3QxwYgu-230">
          <mxGeometry x="341.1400000000001" y="690" width="183.75" height="60" as="geometry" />
        </mxCell>
        <mxCell id="X6pj7YaXZ-_5lvFSQrNL-141" value="&lt;h1 style=&quot;margin-top: 0px;&quot;&gt;sign-up process&lt;/h1&gt;&lt;div&gt;this also applies to update user account&lt;/div&gt;" style="text;html=1;whiteSpace=wrap;overflow=hidden;rounded=0;container=0;" vertex="1" parent="R6BKgWY7cvKUN3QxwYgu-230">
          <mxGeometry x="280.01" y="498" width="210" height="85" as="geometry" />
        </mxCell>
        <mxCell id="1juzW6bf5Yi3JQukz339-11" style="edgeStyle=orthogonalEdgeStyle;rounded=0;orthogonalLoop=1;jettySize=auto;html=1;exitX=1;exitY=0.25;exitDx=0;exitDy=0;entryX=0;entryY=0.5;entryDx=0;entryDy=0;" edge="1" parent="R6BKgWY7cvKUN3QxwYgu-230" source="1juzW6bf5Yi3JQukz339-3" target="1juzW6bf5Yi3JQukz339-8">
          <mxGeometry relative="1" as="geometry" />
        </mxCell>
        <mxCell id="1juzW6bf5Yi3JQukz339-3" value="&lt;b&gt;to database:&amp;nbsp;&lt;/b&gt;&lt;div&gt;&lt;u&gt;required&lt;/u&gt;: user id, username, first&lt;div&gt;&amp;nbsp;and last names; email, phone,&lt;/div&gt;&lt;/div&gt;&lt;div&gt;password; default page mode&lt;/div&gt;&lt;div&gt;and currency; user active of 1&lt;/div&gt;&lt;div&gt;&lt;br&gt;&lt;/div&gt;&lt;div&gt;&lt;u&gt;optional&lt;/u&gt;: user initial and phone&lt;/div&gt;" style="shape=parallelogram;html=1;strokeWidth=2;perimeter=parallelogramPerimeter;whiteSpace=wrap;rounded=1;arcSize=12;size=0.23;container=0;" vertex="1" parent="R6BKgWY7cvKUN3QxwYgu-230">
          <mxGeometry y="590" width="302.5" height="140" as="geometry" />
        </mxCell>
        <mxCell id="1juzW6bf5Yi3JQukz339-12" value="" style="edgeStyle=orthogonalEdgeStyle;rounded=0;orthogonalLoop=1;jettySize=auto;html=1;" edge="1" parent="R6BKgWY7cvKUN3QxwYgu-230" source="1juzW6bf5Yi3JQukz339-8" target="X6pj7YaXZ-_5lvFSQrNL-138">
          <mxGeometry relative="1" as="geometry" />
        </mxCell>
        <mxCell id="1juzW6bf5Yi3JQukz339-8" value="inform user a success message" style="rounded=1;whiteSpace=wrap;html=1;absoluteArcSize=1;arcSize=14;strokeWidth=2;container=0;" vertex="1" parent="R6BKgWY7cvKUN3QxwYgu-230">
          <mxGeometry x="340.01" y="590" width="186" height="60" as="geometry" />
        </mxCell>
        <mxCell id="R6BKgWY7cvKUN3QxwYgu-227" value="inform user the errors" style="rounded=1;whiteSpace=wrap;html=1;absoluteArcSize=1;arcSize=14;strokeWidth=2;container=0;" vertex="1" parent="R6BKgWY7cvKUN3QxwYgu-230">
          <mxGeometry x="330.01" y="170" width="186" height="60" as="geometry" />
        </mxCell>
        <mxCell id="R6BKgWY7cvKUN3QxwYgu-229" style="edgeStyle=orthogonalEdgeStyle;rounded=0;orthogonalLoop=1;jettySize=auto;html=1;entryX=1;entryY=0.5;entryDx=0;entryDy=0;entryPerimeter=0;" edge="1" parent="R6BKgWY7cvKUN3QxwYgu-230" source="R6BKgWY7cvKUN3QxwYgu-227" target="X6pj7YaXZ-_5lvFSQrNL-107">
          <mxGeometry relative="1" as="geometry">
            <Array as="points">
              <mxPoint x="423.01" y="30" />
            </Array>
          </mxGeometry>
        </mxCell>
        <mxCell id="R6BKgWY7cvKUN3QxwYgu-239" value="" style="group" connectable="0" vertex="1" parent="1">
          <mxGeometry x="2160" y="1700" width="180" height="380" as="geometry" />
        </mxCell>
        <mxCell id="R6BKgWY7cvKUN3QxwYgu-232" style="edgeStyle=orthogonalEdgeStyle;rounded=0;orthogonalLoop=1;jettySize=auto;html=1;entryX=0.5;entryY=0;entryDx=0;entryDy=0;" edge="1" parent="R6BKgWY7cvKUN3QxwYgu-239" source="R6BKgWY7cvKUN3QxwYgu-233" target="R6BKgWY7cvKUN3QxwYgu-234">
          <mxGeometry relative="1" as="geometry" />
        </mxCell>
        <mxCell id="R6BKgWY7cvKUN3QxwYgu-233" value="delete expense" style="strokeWidth=2;html=1;shape=mxgraph.flowchart.terminator;whiteSpace=wrap;container=0;" vertex="1" parent="R6BKgWY7cvKUN3QxwYgu-239">
          <mxGeometry x="5" y="80" width="150" height="60" as="geometry" />
        </mxCell>
        <mxCell id="R6BKgWY7cvKUN3QxwYgu-234" value="update expense active to 0" style="rounded=1;whiteSpace=wrap;html=1;absoluteArcSize=1;arcSize=14;strokeWidth=2;container=0;" vertex="1" parent="R6BKgWY7cvKUN3QxwYgu-239">
          <mxGeometry y="195" width="160" height="70" as="geometry" />
        </mxCell>
        <mxCell id="R6BKgWY7cvKUN3QxwYgu-235" value="redirect to expense page" style="strokeWidth=2;html=1;shape=mxgraph.flowchart.terminator;whiteSpace=wrap;container=0;" vertex="1" parent="R6BKgWY7cvKUN3QxwYgu-239">
          <mxGeometry y="320" width="160" height="60" as="geometry" />
        </mxCell>
        <mxCell id="R6BKgWY7cvKUN3QxwYgu-236" style="edgeStyle=orthogonalEdgeStyle;rounded=0;orthogonalLoop=1;jettySize=auto;html=1;entryX=0.5;entryY=0;entryDx=0;entryDy=0;entryPerimeter=0;" edge="1" parent="R6BKgWY7cvKUN3QxwYgu-239" source="R6BKgWY7cvKUN3QxwYgu-234" target="R6BKgWY7cvKUN3QxwYgu-235">
          <mxGeometry relative="1" as="geometry" />
        </mxCell>
        <mxCell id="R6BKgWY7cvKUN3QxwYgu-237" value="&lt;h1 style=&quot;margin-top: 0px;&quot;&gt;delete expense process&lt;/h1&gt;" style="text;html=1;whiteSpace=wrap;overflow=hidden;rounded=0;container=0;" vertex="1" parent="R6BKgWY7cvKUN3QxwYgu-239">
          <mxGeometry width="180" height="70" as="geometry" />
        </mxCell>
        <mxCell id="R6BKgWY7cvKUN3QxwYgu-252" value="CURRENCY" style="shape=table;startSize=30;container=1;collapsible=1;childLayout=tableLayout;fixedRows=1;rowLines=0;fontStyle=1;align=center;resizeLast=1;html=1;fillColor=#647687;fontColor=#ffffff;strokeColor=#314354;" vertex="1" parent="1">
          <mxGeometry x="280" y="410" width="180" height="150" as="geometry" />
        </mxCell>
        <mxCell id="R6BKgWY7cvKUN3QxwYgu-253" value="" style="shape=tableRow;horizontal=0;startSize=0;swimlaneHead=0;swimlaneBody=0;fillColor=none;collapsible=0;dropTarget=0;points=[[0,0.5],[1,0.5]];portConstraint=eastwest;top=0;left=0;right=0;bottom=1;" vertex="1" parent="R6BKgWY7cvKUN3QxwYgu-252">
          <mxGeometry y="30" width="180" height="30" as="geometry" />
        </mxCell>
        <mxCell id="R6BKgWY7cvKUN3QxwYgu-254" value="PK" style="shape=partialRectangle;connectable=0;fillColor=none;top=0;left=0;bottom=0;right=0;fontStyle=1;overflow=hidden;whiteSpace=wrap;html=1;" vertex="1" parent="R6BKgWY7cvKUN3QxwYgu-253">
          <mxGeometry width="30" height="30" as="geometry">
            <mxRectangle width="30" height="30" as="alternateBounds" />
          </mxGeometry>
        </mxCell>
        <mxCell id="R6BKgWY7cvKUN3QxwYgu-255" value="CURR_CODE" style="shape=partialRectangle;connectable=0;fillColor=none;top=0;left=0;bottom=0;right=0;align=left;spacingLeft=6;fontStyle=5;overflow=hidden;whiteSpace=wrap;html=1;" vertex="1" parent="R6BKgWY7cvKUN3QxwYgu-253">
          <mxGeometry x="30" width="150" height="30" as="geometry">
            <mxRectangle width="150" height="30" as="alternateBounds" />
          </mxGeometry>
        </mxCell>
        <mxCell id="R6BKgWY7cvKUN3QxwYgu-256" value="" style="shape=tableRow;horizontal=0;startSize=0;swimlaneHead=0;swimlaneBody=0;fillColor=none;collapsible=0;dropTarget=0;points=[[0,0.5],[1,0.5]];portConstraint=eastwest;top=0;left=0;right=0;bottom=0;" vertex="1" parent="R6BKgWY7cvKUN3QxwYgu-252">
          <mxGeometry y="60" width="180" height="30" as="geometry" />
        </mxCell>
        <mxCell id="R6BKgWY7cvKUN3QxwYgu-257" value="&lt;b&gt;U&lt;/b&gt;" style="shape=partialRectangle;connectable=0;fillColor=none;top=0;left=0;bottom=0;right=0;editable=1;overflow=hidden;whiteSpace=wrap;html=1;" vertex="1" parent="R6BKgWY7cvKUN3QxwYgu-256">
          <mxGeometry width="30" height="30" as="geometry">
            <mxRectangle width="30" height="30" as="alternateBounds" />
          </mxGeometry>
        </mxCell>
        <mxCell id="R6BKgWY7cvKUN3QxwYgu-258" value="CURR_NAME" style="shape=partialRectangle;connectable=0;fillColor=none;top=0;left=0;bottom=0;right=0;align=left;spacingLeft=6;overflow=hidden;whiteSpace=wrap;html=1;fontStyle=1" vertex="1" parent="R6BKgWY7cvKUN3QxwYgu-256">
          <mxGeometry x="30" width="150" height="30" as="geometry">
            <mxRectangle width="150" height="30" as="alternateBounds" />
          </mxGeometry>
        </mxCell>
        <mxCell id="R6BKgWY7cvKUN3QxwYgu-269" value="" style="shape=tableRow;horizontal=0;startSize=0;swimlaneHead=0;swimlaneBody=0;fillColor=none;collapsible=0;dropTarget=0;points=[[0,0.5],[1,0.5]];portConstraint=eastwest;top=0;left=0;right=0;bottom=0;" vertex="1" parent="R6BKgWY7cvKUN3QxwYgu-252">
          <mxGeometry y="90" width="180" height="30" as="geometry" />
        </mxCell>
        <mxCell id="R6BKgWY7cvKUN3QxwYgu-270" value="" style="shape=partialRectangle;connectable=0;fillColor=none;top=0;left=0;bottom=0;right=0;editable=1;overflow=hidden;whiteSpace=wrap;html=1;" vertex="1" parent="R6BKgWY7cvKUN3QxwYgu-269">
          <mxGeometry width="30" height="30" as="geometry">
            <mxRectangle width="30" height="30" as="alternateBounds" />
          </mxGeometry>
        </mxCell>
        <mxCell id="R6BKgWY7cvKUN3QxwYgu-271" value="DOLLAR_TO_CURR" style="shape=partialRectangle;connectable=0;fillColor=none;top=0;left=0;bottom=0;right=0;align=left;spacingLeft=6;overflow=hidden;whiteSpace=wrap;html=1;fontStyle=1" vertex="1" parent="R6BKgWY7cvKUN3QxwYgu-269">
          <mxGeometry x="30" width="150" height="30" as="geometry">
            <mxRectangle width="150" height="30" as="alternateBounds" />
          </mxGeometry>
        </mxCell>
        <mxCell id="R6BKgWY7cvKUN3QxwYgu-259" value="" style="shape=tableRow;horizontal=0;startSize=0;swimlaneHead=0;swimlaneBody=0;fillColor=none;collapsible=0;dropTarget=0;points=[[0,0.5],[1,0.5]];portConstraint=eastwest;top=0;left=0;right=0;bottom=0;" vertex="1" parent="R6BKgWY7cvKUN3QxwYgu-252">
          <mxGeometry y="120" width="180" height="30" as="geometry" />
        </mxCell>
        <mxCell id="R6BKgWY7cvKUN3QxwYgu-260" value="" style="shape=partialRectangle;connectable=0;fillColor=none;top=0;left=0;bottom=0;right=0;editable=1;overflow=hidden;whiteSpace=wrap;html=1;" vertex="1" parent="R6BKgWY7cvKUN3QxwYgu-259">
          <mxGeometry width="30" height="30" as="geometry">
            <mxRectangle width="30" height="30" as="alternateBounds" />
          </mxGeometry>
        </mxCell>
        <mxCell id="R6BKgWY7cvKUN3QxwYgu-261" value="&lt;b&gt;CURR_SIGN&lt;/b&gt;" style="shape=partialRectangle;connectable=0;fillColor=none;top=0;left=0;bottom=0;right=0;align=left;spacingLeft=6;overflow=hidden;whiteSpace=wrap;html=1;" vertex="1" parent="R6BKgWY7cvKUN3QxwYgu-259">
          <mxGeometry x="30" width="150" height="30" as="geometry">
            <mxRectangle width="150" height="30" as="alternateBounds" />
          </mxGeometry>
        </mxCell>
        <mxCell id="R6BKgWY7cvKUN3QxwYgu-268" value="displays" style="edgeStyle=orthogonalEdgeStyle;rounded=1;orthogonalLoop=1;jettySize=auto;html=1;entryX=0;entryY=0.5;entryDx=0;entryDy=0;curved=0;endArrow=ERoneToMany;endFill=0;startArrow=ERmandOne;startFill=0;" edge="1" parent="1" source="R6BKgWY7cvKUN3QxwYgu-253" target="X6pj7YaXZ-_5lvFSQrNL-152">
          <mxGeometry relative="1" as="geometry" />
        </mxCell>
        <mxCell id="2IsBwh009rrDyMOtc46o-4" value="&lt;b&gt;bud active &lt;/b&gt;is different from user active and exp active. user active and exp active are based on if they&#39;re deactivated or not (soft-deleted).&amp;nbsp;&lt;div&gt;&lt;br&gt;&lt;/div&gt;&lt;div&gt;&lt;b&gt;bud active&lt;/b&gt;&amp;nbsp;means that if today&#39;s date is between the budget start and end date, that means it will appear in the application&#39;s UI in the homepage and will be subtracted from today&#39;s expenses&lt;/div&gt;" style="rounded=1;whiteSpace=wrap;html=1;absoluteArcSize=1;arcSize=14;strokeWidth=2;spacingLeft=10;spacingRight=10;" vertex="1" parent="1">
          <mxGeometry x="10" y="480" width="200" height="230" as="geometry" />
        </mxCell>
        <mxCell id="_q9zak7pxbolP305e6u--15" value="" style="group" connectable="0" vertex="1" parent="1">
          <mxGeometry y="750" width="385" height="465" as="geometry" />
        </mxCell>
        <mxCell id="_q9zak7pxbolP305e6u--3" style="edgeStyle=orthogonalEdgeStyle;rounded=0;orthogonalLoop=1;jettySize=auto;html=1;entryX=0.5;entryY=0;entryDx=0;entryDy=0;" edge="1" parent="_q9zak7pxbolP305e6u--15" source="_q9zak7pxbolP305e6u--1" target="_q9zak7pxbolP305e6u--2">
          <mxGeometry relative="1" as="geometry" />
        </mxCell>
        <mxCell id="_q9zak7pxbolP305e6u--1" value="change password" style="strokeWidth=2;html=1;shape=mxgraph.flowchart.terminator;whiteSpace=wrap;container=0;" vertex="1" parent="_q9zak7pxbolP305e6u--15">
          <mxGeometry x="25" width="150" height="60" as="geometry" />
        </mxCell>
        <mxCell id="_q9zak7pxbolP305e6u--6" style="edgeStyle=orthogonalEdgeStyle;rounded=0;orthogonalLoop=1;jettySize=auto;html=1;" edge="1" parent="_q9zak7pxbolP305e6u--15" source="_q9zak7pxbolP305e6u--2" target="_q9zak7pxbolP305e6u--5">
          <mxGeometry relative="1" as="geometry" />
        </mxCell>
        <mxCell id="_q9zak7pxbolP305e6u--2" value="&lt;div&gt;new password &amp;amp;&lt;/div&gt;&lt;div&gt;current password&lt;/div&gt;" style="shape=parallelogram;html=1;strokeWidth=2;perimeter=parallelogramPerimeter;whiteSpace=wrap;rounded=1;arcSize=12;size=0.23;container=0;" vertex="1" parent="_q9zak7pxbolP305e6u--15">
          <mxGeometry y="90" width="200" height="70" as="geometry" />
        </mxCell>
        <mxCell id="_q9zak7pxbolP305e6u--4" value="inform user the error" style="rounded=1;whiteSpace=wrap;html=1;absoluteArcSize=1;arcSize=14;strokeWidth=2;container=0;" vertex="1" parent="_q9zak7pxbolP305e6u--15">
          <mxGeometry x="235" y="110" width="150" height="50" as="geometry" />
        </mxCell>
        <mxCell id="_q9zak7pxbolP305e6u--7" value="no" style="edgeStyle=orthogonalEdgeStyle;rounded=0;orthogonalLoop=1;jettySize=auto;html=1;entryX=0.5;entryY=1;entryDx=0;entryDy=0;" edge="1" parent="_q9zak7pxbolP305e6u--15" source="_q9zak7pxbolP305e6u--5" target="_q9zak7pxbolP305e6u--4">
          <mxGeometry relative="1" as="geometry" />
        </mxCell>
        <mxCell id="_q9zak7pxbolP305e6u--11" value="yes" style="edgeStyle=orthogonalEdgeStyle;rounded=0;orthogonalLoop=1;jettySize=auto;html=1;entryX=0.5;entryY=0;entryDx=0;entryDy=0;" edge="1" parent="_q9zak7pxbolP305e6u--15" source="_q9zak7pxbolP305e6u--5" target="_q9zak7pxbolP305e6u--10">
          <mxGeometry relative="1" as="geometry" />
        </mxCell>
        <mxCell id="_q9zak7pxbolP305e6u--5" value="is the current password correct?" style="strokeWidth=2;html=1;shape=mxgraph.flowchart.decision;whiteSpace=wrap;container=0;" vertex="1" parent="_q9zak7pxbolP305e6u--15">
          <mxGeometry x="17.5" y="200" width="165" height="160" as="geometry" />
        </mxCell>
        <mxCell id="_q9zak7pxbolP305e6u--8" style="edgeStyle=orthogonalEdgeStyle;rounded=0;orthogonalLoop=1;jettySize=auto;html=1;entryX=1;entryY=0.5;entryDx=0;entryDy=0;entryPerimeter=0;exitX=0.5;exitY=0;exitDx=0;exitDy=0;" edge="1" parent="_q9zak7pxbolP305e6u--15" source="_q9zak7pxbolP305e6u--4" target="_q9zak7pxbolP305e6u--1">
          <mxGeometry relative="1" as="geometry" />
        </mxCell>
        <mxCell id="_q9zak7pxbolP305e6u--10" value="hash the new password&lt;div&gt;and store to the database&lt;/div&gt;" style="rounded=1;whiteSpace=wrap;html=1;absoluteArcSize=1;arcSize=14;strokeWidth=2;container=0;" vertex="1" parent="_q9zak7pxbolP305e6u--15">
          <mxGeometry x="25" y="410" width="150" height="50" as="geometry" />
        </mxCell>
        <mxCell id="_q9zak7pxbolP305e6u--12" value="refresh user page" style="strokeWidth=2;html=1;shape=mxgraph.flowchart.terminator;whiteSpace=wrap;container=0;" vertex="1" parent="_q9zak7pxbolP305e6u--15">
          <mxGeometry x="230" y="405" width="150" height="60" as="geometry" />
        </mxCell>
        <mxCell id="_q9zak7pxbolP305e6u--13" style="edgeStyle=orthogonalEdgeStyle;rounded=0;orthogonalLoop=1;jettySize=auto;html=1;entryX=0;entryY=0.5;entryDx=0;entryDy=0;entryPerimeter=0;" edge="1" parent="_q9zak7pxbolP305e6u--15" source="_q9zak7pxbolP305e6u--10" target="_q9zak7pxbolP305e6u--12">
          <mxGeometry relative="1" as="geometry" />
        </mxCell>
        <mxCell id="_q9zak7pxbolP305e6u--14" value="&lt;h1 style=&quot;margin-top: 0px;&quot;&gt;password change process&lt;/h1&gt;" style="text;html=1;whiteSpace=wrap;overflow=hidden;rounded=0;container=0;" vertex="1" parent="_q9zak7pxbolP305e6u--15">
          <mxGeometry x="165" y="310" width="210" height="70" as="geometry" />
        </mxCell>
        <mxCell id="2djmAyTOoV507-yFkGss-1" value="" style="group" connectable="0" vertex="1" parent="1">
          <mxGeometry x="420" y="750" width="385" height="465" as="geometry" />
        </mxCell>
        <mxCell id="2djmAyTOoV507-yFkGss-2" style="edgeStyle=orthogonalEdgeStyle;rounded=0;orthogonalLoop=1;jettySize=auto;html=1;entryX=0.5;entryY=0;entryDx=0;entryDy=0;" edge="1" parent="2djmAyTOoV507-yFkGss-1" source="2djmAyTOoV507-yFkGss-3" target="2djmAyTOoV507-yFkGss-5">
          <mxGeometry relative="1" as="geometry" />
        </mxCell>
        <mxCell id="2djmAyTOoV507-yFkGss-3" value="change username" style="strokeWidth=2;html=1;shape=mxgraph.flowchart.terminator;whiteSpace=wrap;container=0;" vertex="1" parent="2djmAyTOoV507-yFkGss-1">
          <mxGeometry x="25" width="150" height="60" as="geometry" />
        </mxCell>
        <mxCell id="2djmAyTOoV507-yFkGss-4" style="edgeStyle=orthogonalEdgeStyle;rounded=0;orthogonalLoop=1;jettySize=auto;html=1;" edge="1" parent="2djmAyTOoV507-yFkGss-1" source="2djmAyTOoV507-yFkGss-5" target="2djmAyTOoV507-yFkGss-9">
          <mxGeometry relative="1" as="geometry" />
        </mxCell>
        <mxCell id="2djmAyTOoV507-yFkGss-5" value="&lt;div&gt;&lt;span style=&quot;background-color: initial;&quot;&gt;new username &amp;amp;&amp;nbsp;&lt;/span&gt;&lt;/div&gt;&lt;div&gt;&lt;span style=&quot;background-color: initial;&quot;&gt;current password&lt;/span&gt;&lt;br&gt;&lt;/div&gt;" style="shape=parallelogram;html=1;strokeWidth=2;perimeter=parallelogramPerimeter;whiteSpace=wrap;rounded=1;arcSize=12;size=0.23;container=0;" vertex="1" parent="2djmAyTOoV507-yFkGss-1">
          <mxGeometry y="90" width="200" height="70" as="geometry" />
        </mxCell>
        <mxCell id="2djmAyTOoV507-yFkGss-6" value="inform user the error" style="rounded=1;whiteSpace=wrap;html=1;absoluteArcSize=1;arcSize=14;strokeWidth=2;container=0;" vertex="1" parent="2djmAyTOoV507-yFkGss-1">
          <mxGeometry x="235" y="110" width="150" height="50" as="geometry" />
        </mxCell>
        <mxCell id="2djmAyTOoV507-yFkGss-7" value="no" style="edgeStyle=orthogonalEdgeStyle;rounded=0;orthogonalLoop=1;jettySize=auto;html=1;entryX=0.5;entryY=1;entryDx=0;entryDy=0;" edge="1" parent="2djmAyTOoV507-yFkGss-1" source="2djmAyTOoV507-yFkGss-9" target="2djmAyTOoV507-yFkGss-6">
          <mxGeometry relative="1" as="geometry" />
        </mxCell>
        <mxCell id="2djmAyTOoV507-yFkGss-8" value="yes" style="edgeStyle=orthogonalEdgeStyle;rounded=0;orthogonalLoop=1;jettySize=auto;html=1;entryX=0.5;entryY=0;entryDx=0;entryDy=0;" edge="1" parent="2djmAyTOoV507-yFkGss-1" source="2djmAyTOoV507-yFkGss-9" target="2djmAyTOoV507-yFkGss-11">
          <mxGeometry relative="1" as="geometry" />
        </mxCell>
        <mxCell id="2djmAyTOoV507-yFkGss-9" value="is the current password correct?" style="strokeWidth=2;html=1;shape=mxgraph.flowchart.decision;whiteSpace=wrap;container=0;" vertex="1" parent="2djmAyTOoV507-yFkGss-1">
          <mxGeometry x="17.5" y="200" width="165" height="160" as="geometry" />
        </mxCell>
        <mxCell id="2djmAyTOoV507-yFkGss-10" style="edgeStyle=orthogonalEdgeStyle;rounded=0;orthogonalLoop=1;jettySize=auto;html=1;entryX=1;entryY=0.5;entryDx=0;entryDy=0;entryPerimeter=0;exitX=0.5;exitY=0;exitDx=0;exitDy=0;" edge="1" parent="2djmAyTOoV507-yFkGss-1" source="2djmAyTOoV507-yFkGss-6" target="2djmAyTOoV507-yFkGss-3">
          <mxGeometry relative="1" as="geometry" />
        </mxCell>
        <mxCell id="2djmAyTOoV507-yFkGss-11" value="update username" style="rounded=1;whiteSpace=wrap;html=1;absoluteArcSize=1;arcSize=14;strokeWidth=2;container=0;" vertex="1" parent="2djmAyTOoV507-yFkGss-1">
          <mxGeometry x="25" y="410" width="150" height="50" as="geometry" />
        </mxCell>
        <mxCell id="2djmAyTOoV507-yFkGss-12" value="refresh user page" style="strokeWidth=2;html=1;shape=mxgraph.flowchart.terminator;whiteSpace=wrap;container=0;" vertex="1" parent="2djmAyTOoV507-yFkGss-1">
          <mxGeometry x="230" y="405" width="150" height="60" as="geometry" />
        </mxCell>
        <mxCell id="2djmAyTOoV507-yFkGss-13" style="edgeStyle=orthogonalEdgeStyle;rounded=0;orthogonalLoop=1;jettySize=auto;html=1;entryX=0;entryY=0.5;entryDx=0;entryDy=0;entryPerimeter=0;" edge="1" parent="2djmAyTOoV507-yFkGss-1" source="2djmAyTOoV507-yFkGss-11" target="2djmAyTOoV507-yFkGss-12">
          <mxGeometry relative="1" as="geometry" />
        </mxCell>
        <mxCell id="2djmAyTOoV507-yFkGss-14" value="&lt;h1 style=&quot;margin-top: 0px;&quot;&gt;username change process&lt;/h1&gt;" style="text;html=1;whiteSpace=wrap;overflow=hidden;rounded=0;container=0;" vertex="1" parent="2djmAyTOoV507-yFkGss-1">
          <mxGeometry x="165" y="310" width="210" height="70" as="geometry" />
        </mxCell>
        <mxCell id="2djmAyTOoV507-yFkGss-30" value="" style="group" connectable="0" vertex="1" parent="1">
          <mxGeometry x="1900" y="10" width="585" height="560" as="geometry" />
        </mxCell>
        <mxCell id="2djmAyTOoV507-yFkGss-17" style="edgeStyle=orthogonalEdgeStyle;rounded=0;orthogonalLoop=1;jettySize=auto;html=1;" edge="1" parent="2djmAyTOoV507-yFkGss-30" source="R6BKgWY7cvKUN3QxwYgu-81" target="R6BKgWY7cvKUN3QxwYgu-82">
          <mxGeometry relative="1" as="geometry" />
        </mxCell>
        <mxCell id="R6BKgWY7cvKUN3QxwYgu-81" value="deactivate account" style="strokeWidth=2;html=1;shape=mxgraph.flowchart.terminator;whiteSpace=wrap;container=0;" vertex="1" parent="2djmAyTOoV507-yFkGss-30">
          <mxGeometry x="18" width="150" height="60" as="geometry" />
        </mxCell>
        <mxCell id="R6BKgWY7cvKUN3QxwYgu-82" value="warn user about not&lt;div&gt;being able to use&lt;/div&gt;&lt;div&gt;their account and the need to&lt;/div&gt;&lt;div&gt;contact admins for reactivation&lt;/div&gt;" style="rounded=1;whiteSpace=wrap;html=1;absoluteArcSize=1;arcSize=14;strokeWidth=2;container=0;" vertex="1" parent="2djmAyTOoV507-yFkGss-30">
          <mxGeometry y="90" width="186" height="90" as="geometry" />
        </mxCell>
        <mxCell id="2djmAyTOoV507-yFkGss-23" value="yes" style="edgeStyle=orthogonalEdgeStyle;rounded=0;orthogonalLoop=1;jettySize=auto;html=1;entryX=0;entryY=0.5;entryDx=0;entryDy=0;" edge="1" parent="2djmAyTOoV507-yFkGss-30" source="R6BKgWY7cvKUN3QxwYgu-85" target="2djmAyTOoV507-yFkGss-15">
          <mxGeometry relative="1" as="geometry" />
        </mxCell>
        <mxCell id="R6BKgWY7cvKUN3QxwYgu-85" value="continue?" style="strokeWidth=2;html=1;shape=mxgraph.flowchart.decision;whiteSpace=wrap;container=0;" vertex="1" parent="2djmAyTOoV507-yFkGss-30">
          <mxGeometry x="35.5" y="210" width="115" height="120" as="geometry" />
        </mxCell>
        <mxCell id="R6BKgWY7cvKUN3QxwYgu-86" style="edgeStyle=orthogonalEdgeStyle;rounded=0;orthogonalLoop=1;jettySize=auto;html=1;entryX=0.5;entryY=0;entryDx=0;entryDy=0;entryPerimeter=0;" edge="1" parent="2djmAyTOoV507-yFkGss-30" source="R6BKgWY7cvKUN3QxwYgu-82" target="R6BKgWY7cvKUN3QxwYgu-85">
          <mxGeometry relative="1" as="geometry" />
        </mxCell>
        <mxCell id="R6BKgWY7cvKUN3QxwYgu-242" style="edgeStyle=orthogonalEdgeStyle;rounded=0;orthogonalLoop=1;jettySize=auto;html=1;entryX=0.5;entryY=0;entryDx=0;entryDy=0;" edge="1" parent="2djmAyTOoV507-yFkGss-30" source="R6BKgWY7cvKUN3QxwYgu-88" target="R6BKgWY7cvKUN3QxwYgu-241">
          <mxGeometry relative="1" as="geometry" />
        </mxCell>
        <mxCell id="R6BKgWY7cvKUN3QxwYgu-88" value="update user active attribute to 0" style="rounded=1;whiteSpace=wrap;html=1;absoluteArcSize=1;arcSize=14;strokeWidth=2;container=0;" vertex="1" parent="2djmAyTOoV507-yFkGss-30">
          <mxGeometry x="445" y="390" width="140" height="60" as="geometry" />
        </mxCell>
        <mxCell id="R6BKgWY7cvKUN3QxwYgu-94" value="&lt;h1 style=&quot;margin-top: 0px;&quot;&gt;account deactivation process&lt;/h1&gt;" style="text;html=1;whiteSpace=wrap;overflow=hidden;rounded=0;container=0;" vertex="1" parent="2djmAyTOoV507-yFkGss-30">
          <mxGeometry x="242.5" y="80" width="180" height="110" as="geometry" />
        </mxCell>
        <mxCell id="R6BKgWY7cvKUN3QxwYgu-240" value="redirect to homepage" style="strokeWidth=2;html=1;shape=mxgraph.flowchart.terminator;whiteSpace=wrap;container=0;" vertex="1" parent="2djmAyTOoV507-yFkGss-30">
          <mxGeometry x="265" y="500" width="135" height="60" as="geometry" />
        </mxCell>
        <mxCell id="R6BKgWY7cvKUN3QxwYgu-241" value="remove cookies" style="rounded=1;whiteSpace=wrap;html=1;absoluteArcSize=1;arcSize=14;strokeWidth=2;container=0;" vertex="1" parent="2djmAyTOoV507-yFkGss-30">
          <mxGeometry x="445" y="500" width="140" height="60" as="geometry" />
        </mxCell>
        <mxCell id="2djmAyTOoV507-yFkGss-15" value="password" style="shape=parallelogram;html=1;strokeWidth=2;perimeter=parallelogramPerimeter;whiteSpace=wrap;rounded=1;arcSize=12;size=0.23;container=0;" vertex="1" parent="2djmAyTOoV507-yFkGss-30">
          <mxGeometry x="227.5" y="245" width="152.5" height="50" as="geometry" />
        </mxCell>
        <mxCell id="2djmAyTOoV507-yFkGss-25" value="no" style="edgeStyle=orthogonalEdgeStyle;rounded=0;orthogonalLoop=1;jettySize=auto;html=1;entryX=0.5;entryY=1;entryDx=0;entryDy=0;" edge="1" parent="2djmAyTOoV507-yFkGss-30" source="2djmAyTOoV507-yFkGss-19" target="2djmAyTOoV507-yFkGss-21">
          <mxGeometry relative="1" as="geometry" />
        </mxCell>
        <mxCell id="2djmAyTOoV507-yFkGss-27" value="yes" style="edgeStyle=orthogonalEdgeStyle;rounded=0;orthogonalLoop=1;jettySize=auto;html=1;entryX=0.5;entryY=0;entryDx=0;entryDy=0;" edge="1" parent="2djmAyTOoV507-yFkGss-30" source="2djmAyTOoV507-yFkGss-19" target="R6BKgWY7cvKUN3QxwYgu-88">
          <mxGeometry relative="1" as="geometry" />
        </mxCell>
        <mxCell id="2djmAyTOoV507-yFkGss-19" value="correct&lt;div&gt;password?&lt;/div&gt;" style="strokeWidth=2;html=1;shape=mxgraph.flowchart.decision;whiteSpace=wrap;container=0;" vertex="1" parent="2djmAyTOoV507-yFkGss-30">
          <mxGeometry x="459.5" y="210" width="115" height="120" as="geometry" />
        </mxCell>
        <mxCell id="2djmAyTOoV507-yFkGss-20" value="" style="edgeStyle=orthogonalEdgeStyle;rounded=0;orthogonalLoop=1;jettySize=auto;html=1;entryX=0;entryY=0.5;entryDx=0;entryDy=0;entryPerimeter=0;" edge="1" parent="2djmAyTOoV507-yFkGss-30" source="2djmAyTOoV507-yFkGss-15" target="2djmAyTOoV507-yFkGss-19">
          <mxGeometry relative="1" as="geometry" />
        </mxCell>
        <mxCell id="2djmAyTOoV507-yFkGss-21" value="inform user the error" style="rounded=1;whiteSpace=wrap;html=1;absoluteArcSize=1;arcSize=14;strokeWidth=2;container=0;" vertex="1" parent="2djmAyTOoV507-yFkGss-30">
          <mxGeometry x="454" y="10" width="126" height="40" as="geometry" />
        </mxCell>
        <mxCell id="2djmAyTOoV507-yFkGss-26" style="edgeStyle=orthogonalEdgeStyle;rounded=0;orthogonalLoop=1;jettySize=auto;html=1;entryX=1;entryY=0.5;entryDx=0;entryDy=0;entryPerimeter=0;" edge="1" parent="2djmAyTOoV507-yFkGss-30" source="2djmAyTOoV507-yFkGss-21" target="R6BKgWY7cvKUN3QxwYgu-81">
          <mxGeometry relative="1" as="geometry" />
        </mxCell>
        <mxCell id="2djmAyTOoV507-yFkGss-29" style="edgeStyle=orthogonalEdgeStyle;rounded=0;orthogonalLoop=1;jettySize=auto;html=1;entryX=1;entryY=0.5;entryDx=0;entryDy=0;entryPerimeter=0;" edge="1" parent="2djmAyTOoV507-yFkGss-30" source="R6BKgWY7cvKUN3QxwYgu-241" target="R6BKgWY7cvKUN3QxwYgu-240">
          <mxGeometry relative="1" as="geometry" />
        </mxCell>
      </root>
    </mxGraphModel>
  </diagram>
</mxfile>
